<?xml version="1.0" encoding="UTF-8" standalone="no"?>
<svg width="103px" height="23px" viewBox="0 0 103 23" version="1.1" xmlns="http://www.w3.org/2000/svg" xmlns:xlink="http://www.w3.org/1999/xlink">
    <!-- Generator: Sketch 40.2 (33826) - http://www.bohemiancoding.com/sketch -->
    <title>Group 5</title>
    <desc>Created with Sketch.</desc>
    <defs></defs>
    <g id="CGK-ON" stroke="none" stroke-width="1" fill="none" fill-rule="evenodd">
        <g id="CGK-ON-" transform="translate(-351.000000, -724.000000)" fill="#FFFFFF">
            <g id="Asset-1" transform="translate(231.000000, 723.000000)">
                <g id="Layer_2">
                    <g>
                        <g id="Layer_1-2">
                            <g id="Group-5" transform="translate(120.000000, 1.000000)">
                                <path d="M2.42126557,5.90285714 C3.3912819,5.90285714 4.17763551,6.69083598 4.17763551,7.66285714 C4.17763551,8.6348783 3.3912819,9.42285714 2.42126557,9.42285714 C1.45124924,9.42285714 0.664895636,8.6348783 0.664895636,7.66285714 C0.674171297,6.69471216 1.45511743,5.91215198 2.42126557,5.90285714 L2.42126557,5.90285714 Z M2.42126557,13.2628571 C3.13371373,13.2629174 3.77554576,13.6942429 4.04600762,14.3547203 C4.31646948,15.0151977 4.16197368,15.7739644 3.65491493,16.2754724 C3.14785617,16.7769803 2.38869965,16.9218641 1.73317613,16.6422331 C1.0776526,16.3626021 0.655643065,15.7138604 0.664895636,15 C0.698418747,14.0497508 1.47242256,13.2942928 2.42126557,13.2857143 L2.42126557,13.2628571 Z" id="Shape"></path>
                                <path d="M96.8717697,16.4742857 L92.7032423,16.0228571 C91.4711172,15.9671619 90.2560517,15.7124549 89.1049649,15.2685714 C88.435522,15.0142839 87.9036547,14.4896126 87.6394225,13.8228571 C87.42843,13.2514286 87.5253725,12.7485714 88.169755,12.5371429 C89.0479399,12.2514286 89.9375299,12 90.8271199,11.7485714 C93.5814273,10.9657143 96.3813547,10.3657143 99.0672321,9.33714286 C99.7373676,9.12027948 100.429902,8.98033617 101.131537,8.92 C101.627857,8.80023611 102.14151,9.03634367 102.374682,9.49142857 C102.579977,9.90065518 102.521625,10.3931738 102.226417,10.7428571 C101.939797,11.1619849 101.375712,11.2825719 100.943355,11.0171429 C100.481118,10.8610091 99.9790409,10.8711118 99.5234321,11.0457143 C96.7976372,11.7657143 94.0604373,12.4514286 91.3403449,13.1828571 C90.8155808,13.2197085 90.3153015,13.419435 89.9090174,13.7542857 C90.0287699,14.1657143 90.3880274,14.0971429 90.6731524,14.1485714 C92.5290307,14.5328143 94.4135117,14.7621717 96.3072222,14.8342857 C97.321274,14.8840671 98.3233104,15.0764249 99.2839271,15.4057143 C99.8826895,15.5942857 100.47575,15.9142857 100.52137,16.64 C100.56699,17.3657143 99.9511195,17.5542857 99.4093821,17.7828571 C97.06935,18.7111868 94.6263169,19.3539043 92.1329923,19.6971429 C90.5762099,19.96 88.9795099,19.9657143 87.485455,20.6 C87.2332321,20.7087279 86.9455566,20.6978542 86.7022245,20.5703949 C86.4588924,20.4429357 86.2857798,20.2124451 86.230905,19.9428571 C85.9971025,19.2914286 86.49322,19.0742857 86.983635,18.9485714 C88.2263077,18.6547693 89.4876151,18.4466626 90.7586899,18.3257143 C92.8507776,18.0953518 94.9028019,17.5860898 96.8603647,16.8114286 L96.8717697,16.4742857 Z" id="Shape"></path>
                                <path d="M87.5253725,11.3085714 C87.430032,11.0614633 87.2473755,10.8580921 87.0121475,10.7371429 C86.3461317,10.2922293 85.5008145,10.2148326 84.7653626,10.5314286 C81.9597327,11.8171429 79.1198878,13.0514286 76.0633479,13.64 C74.9744399,13.8805213 73.8553667,13.9537389 72.744493,13.8571429 C74.341193,12.2742857 75.6755779,10.9314286 77.0327729,9.60571429 C77.191459,9.45300224 77.3885586,9.34634848 77.6030229,9.29714286 C78.7923688,8.97852506 79.9406123,8.52211379 81.0245227,7.93714286 C82.7751902,7.12571429 84.4916426,6.22285714 85.7804076,4.66857143 C86.4860341,3.8903063 86.5707563,2.73004356 85.9856975,1.85714286 C85.4496626,1.09142857 84.5600726,0.885714286 83.4937051,1.37142857 C82.0464393,2.05138019 80.7552983,3.02416935 79.7015428,4.22857143 C78.6922003,5.37142857 77.6828579,6.46285714 76.6906229,7.59428571 C76.4270719,7.94882981 76.0694385,8.22206414 75.6584704,8.38285714 C72.641848,9.36571429 69.6993581,10.5657143 66.5059583,11.3257143 C65.3198383,9.69714286 63.6147909,9.50857143 61.7842884,9.78285714 C61.1741209,9.87428571 60.5753585,10.0285714 59.976596,10.1771429 C58.391301,10.5714286 56.8174111,10.9942857 55.2264137,11.3657143 C54.4508737,11.5485714 53.6810362,11.6914286 53.0309512,10.9485714 C52.5975613,10.4571429 51.9189638,10.4742857 51.3202013,10.3771429 C49.7919314,10.1085714 48.3606039,10.6057143 46.900764,10.8857143 C46.547209,10.9542857 46.1879515,11.16 46.170844,11.56 C46.170844,12.3142857 45.600594,12.5771429 45.0930715,12.9485714 C43.5305866,14.0914286 41.9966141,15.3314286 41.0328917,17.0857143 C40.6580051,17.6519894 40.6251081,18.3792158 40.9473298,18.977156 C41.2695516,19.5750963 41.8944268,19.9463915 42.5725666,19.9428571 C43.0600903,19.988556 43.5515909,19.9221054 44.0095966,19.7485714 C45.0360465,19.3542857 46.091009,19.0114286 47.0775415,18.5371429 C49.2280455,17.6042734 51.1504597,16.2140768 52.7116113,14.4628571 C53.1357287,13.9163953 53.6261165,13.424994 54.1714512,13 C54.5877337,12.9142857 55.4374062,12.7257143 55.9905486,12.6685714 C55.8308786,12.8171429 55.6883161,12.9428571 55.5571587,13.0571429 C54.4344976,13.9209041 53.3975489,14.8911059 52.4607013,15.9542857 C51.7313517,16.7890202 51.654102,18.0111505 52.2725188,18.9314286 C52.7477105,19.8322755 53.7674484,20.301012 54.7588087,20.0742857 C55.0824855,20.0418713 55.4029231,19.9826207 55.7168286,19.8971429 C57.9202052,19.2817976 60.0546466,18.4411921 62.0865209,17.3885714 C64.1052058,16.2457143 66.0782708,15.1028571 66.8994307,12.8171429 L73.0011055,11 C72.4115293,12.0644332 71.5594351,12.9596041 70.5262206,13.6 C70.2589619,13.761364 69.9474274,13.8334052 69.6366306,13.8057143 C68.0456332,13.8057143 67.9715007,13.8742857 68.1083607,15.5542857 L67.6122432,15.9542857 C66.3291808,16.9657143 65.0119033,17.9371429 63.7630559,18.9942857 C62.6795809,19.9142857 62.1777609,21.2171429 63.3923934,21.8914286 C64.5328933,21.8914286 64.6697533,20.9142857 65.3768633,19.9828571 C65.5741442,19.6776378 65.8120391,19.4008017 66.0839733,19.16 C67.5267057,18.0628571 68.9352232,16.9085714 70.4007656,15.8514286 C71.3872981,15.1428571 72.3852355,15.5428571 72.7616005,16.6857143 C73.0287142,17.7568354 73.5668556,18.7408749 74.3240855,19.5428571 C76.2515304,21.3657143 80.5968352,21.8285714 82.8778352,20.3771429 C83.3169276,20.0971429 83.4994076,19.8057143 83.1800677,19.2685714 C82.7977628,19.2392895 82.413237,19.2681885 82.0395677,19.3542857 C80.9059838,19.7272051 79.7119031,19.8804099 78.5211253,19.8057143 C77.3803036,19.8553834 76.2702541,19.4273916 75.4568834,18.6242621 C74.6435127,17.8211325 74.2000938,16.7152159 74.2328455,15.5714286 C74.4487889,15.341283 74.7501644,15.2109686 75.0654104,15.2114286 C77.9300354,14.7206857 80.7409781,13.9552639 83.4594901,12.9257143 C84.5999901,12.5085714 85.6777626,11.5942857 87.0919825,12.08 C87.439835,12.1428571 87.70215,11.7371429 87.5253725,11.3085714 L87.5253725,11.3085714 Z M84.9364376,3.36 C85.3413151,4.08571429 82.1194027,6.28 79.8041878,6.78857143 C80.5227027,4.81714286 83.9955251,2.53142857 84.9364376,3.36 L84.9364376,3.36 Z M50.2082138,11.7542857 C50.3735863,11.7542857 50.9438363,11.7542857 51.0863988,11.7885714 C51.5254913,11.84 51.7535913,11.9314286 51.7592938,12.08 C51.7649963,12.2285714 50.9210263,12.4342857 50.2481313,12.4457143 C49.9040031,12.4712582 49.558175,12.4616852 49.2159789,12.4171429 C48.9878789,12.3542857 48.8225064,12.2742857 48.8225064,12.1714286 C48.7939939,11.9657143 49.5353189,11.76 50.2082138,11.7542857 L50.2082138,11.7542857 Z M42.5212441,18.1828571 C42.2874416,17.7771429 42.5896741,17.5028571 42.7949641,17.2457143 C44.0250665,15.7957759 45.4489074,14.5228233 47.026219,13.4628571 C47.1240325,13.3711632 47.2473201,13.3113846 47.3797739,13.2914286 C48.9479614,13.3657143 50.2937513,13.7428571 52.1755763,13.1428571 C50.4306113,15.7771429 44.6824915,18.6514286 42.5212441,18.1828571 L42.5212441,18.1828571 Z M63.0502434,11.4 C63.8029734,11.4 64.5385958,11.5885714 64.5385958,11.8457143 C64.5385958,12.1028571 64.0310733,12.32 63.2783434,12.3314286 C62.9326866,12.3716854 62.5825586,12.3464861 62.2461909,12.2571429 C62.0751159,12.1828571 61.8128009,11.9771429 61.8128009,11.8742857 C61.8413134,11.6228571 62.3260259,11.4114286 63.0502434,11.4 L63.0502434,11.4 Z M64.1109083,14.5942857 C62.2781192,15.9676642 60.2212859,17.0117407 58.0320436,17.68 C57.1139411,17.9771429 56.2414586,18.2514286 55.3176537,18.4971429 C55.011223,18.6219411 54.6718558,18.6400512 54.3539312,18.5485714 C54.0185506,18.4944496 53.736376,18.2673898 53.6112229,17.9509303 C53.4860698,17.6344707 53.5364256,17.2753581 53.7437637,17.0057143 C53.9794915,16.5973618 54.271266,16.2241958 54.6105437,15.8971429 C56.1673261,14.4685714 57.6841911,13.08 59.782711,12.3485714 C60.558251,13.8457143 61.7443709,14.1771429 63.2441284,13.7371429 C63.7743816,13.6117093 64.3112678,13.5163199 64.8522333,13.4514286 C64.9662833,14.1085714 64.4815708,14.3314286 64.1394208,14.6 L64.1109083,14.5942857 Z" id="Shape"></path>
                                <path d="M42.1562841,11.3428571 C41.4826681,10.5108472 40.5745215,9.90150974 39.5502417,9.59428571 C38.0960434,9.06938806 36.5796605,8.73705377 35.0395644,8.60571429 C34.4177062,8.57084385 33.7986879,8.49640813 33.186252,8.38285714 C34.0340243,8.00210456 34.9066118,7.67945814 35.7979969,7.41714286 C37.9421368,6.58857143 40.0691692,5.70285714 41.7514066,4.05714286 C42.9831466,2.85714286 42.6980216,1.38285714 41.1412392,0.628571429 C40.1279277,0.153456479 38.9983714,-0.0153342708 37.8908143,0.142857143 C32.9638545,0.714285714 28.6584671,2.90857143 24.8720073,5.97142857 C21.3706724,8.82857143 18.2571075,12.0857143 14.8983351,15.1142857 C14.3280851,15.64 13.6780002,16.04 14.0372577,16.8742857 C13.3415527,17.4457143 12.5146902,17.6114286 11.9444402,18.1942857 C11.1004703,19.0628571 10.9978253,19.8285714 11.7562577,20.6342857 C12.7366741,21.8039409 14.1573423,22.5136739 15.6795776,22.5942857 C18.7299873,22.6954522 21.7774918,22.3195105 24.7123373,21.48 C26.9534197,20.8228571 29.1773946,20.1142857 31.395667,19.4 C32.273852,19.6742857 33.6766669,20.2914286 34.3723719,20.4171429 C34.8855969,20.7714286 35.2106394,20.8857143 35.6440294,20.4742857 C35.7523769,20.0228571 34.1100569,19.2114286 33.3630295,18.9314286 L33.117822,18.8457143 C35.6793161,18.0829334 38.1196627,16.9593237 40.3656992,15.5085714 C41.0955613,15.0072863 41.729183,14.3781624 42.2361191,13.6514286 C42.8434529,12.9893075 42.807901,11.961261 42.1562841,11.3428571 L42.1562841,11.3428571 Z M29.2971471,4.77142857 C32.1997195,3.05714286 35.2505569,1.72571429 38.7119743,1.71428571 C39.1524712,1.71897256 39.5923164,1.74950099 40.0292517,1.80571429 C40.1794487,1.82086149 40.325992,1.86143739 40.4626417,1.92571429 C40.6208548,2.00258689 40.7535316,2.12363184 40.8447092,2.27428571 C40.9813158,2.44655356 41.0392692,2.66847607 41.0043792,2.88571429 C40.944706,2.99810255 40.8585812,3.09421253 40.7534692,3.16571429 C40.665312,3.24844456 40.5698832,3.32303285 40.4683442,3.38857143 L39.8980942,3.72571429 C39.4247867,4.01714286 38.9343718,4.29714286 38.4439568,4.53714286 C37.9535418,4.77714286 37.4346143,5.00571429 36.9327943,5.25142857 C36.4309743,5.49714286 35.9234519,5.73142857 35.4102269,5.96 C34.8970019,6.18857143 34.3780744,6.4 33.8534444,6.60571429 C33.3288145,6.81142857 32.798482,7.00571429 32.2681495,7.17714286 C31.737817,7.34857143 31.1960795,7.54285714 30.6543421,7.71428571 C30.1126046,7.88571429 29.5651646,8.04571429 29.0234271,8.2 C28.4816896,8.35428571 27.9228446,8.49714286 27.3697022,8.64 C26.8165597,8.78285714 26.2634172,8.90857143 25.7045722,9.03428571 L24.8663048,9.21714286 L24.4443198,9.30285714 L24.2333273,9.34285714 L24.1249798,9.34285714 L24.0337398,9.34285714 C25.4264777,7.44518691 27.2247558,5.88332799 29.2971471,4.77142857 L29.2971471,4.77142857 Z M26.2919297,19.6285714 C23.2924148,20.5485714 20.2757924,21.3771429 17.1052025,21.4228571 C16.6661101,21.4228571 16.2213151,21.3657143 15.7822226,21.3885714 C14.7773909,21.4553052 13.8597279,20.8177755 13.5696527,19.8514286 C13.8307109,19.1585762 14.4040275,18.6307131 15.1150301,18.4285714 C17.2130595,17.4800977 19.532672,17.1339094 21.8154674,17.4285714 C24.0964673,17.7314286 26.3261447,18.1428571 28.5843346,18.5028571 C28.7170524,18.5450807 28.8466309,18.5966374 28.9721046,18.6571429 C28.110921,19.0611156 27.2135319,19.3825475 26.2919297,19.6171429 L26.2919297,19.6285714 Z M40.0919792,13.7085714 C39.5851846,14.080943 39.0578147,14.4243465 38.5123868,14.7371429 C37.407446,15.4668954 36.2417108,16.09972 35.0281594,16.6285714 C33.7793119,17.1257143 32.4848445,17.4971429 31.235997,18 C30.9387894,18.0931443 30.6186567,18.0810388 30.3292996,17.9657143 C27.079396,17.0242988 23.7565378,16.3572068 20.3955449,15.9714286 C19.186615,15.8285714 17.8579325,16.28 16.5349526,16.1428571 C17.247765,15.6457143 18.0290075,15 18.7133075,14.4285714 C19.5458725,13.7771429 20.2073624,13.4 21.1026549,12.6057143 C21.5414749,12.213455 22.0328387,11.884561 22.5624948,11.6285714 C25.0185698,10.6262235 27.6201066,10.028042 30.2665721,9.85714286 C33.6025344,9.61714286 36.9327943,9.74285714 40.0406567,11.3542857 C40.5139642,11.6 40.9245442,11.7485714 40.9530567,12.36 C40.9815692,12.9714286 40.5652867,13.3314286 40.0919792,13.6971429 L40.0919792,13.7085714 Z" id="Shape"></path>
                            </g>
                        </g>
                    </g>
                </g>
            </g>
        </g>
    </g>
</svg>