<svg xmlns="http://www.w3.org/2000/svg" viewBox="0 0 191.49 39.63"><defs><style>.cls-1{fill:#fff;}.cls-2{fill:#bbb272;}</style></defs><title>Asset 1</title><g id="Layer_2" data-name="Layer 2"><g id="Layer_1-2" data-name="Layer 1"><path class="cls-1" d="M146.78,39.43H126.07V36.07l20.18-1.79c.29,0,.53.15.53.37Z"/><path class="cls-2" d="M145.23,23.68a12.68,12.68,0,0,1-17.38,0,11.5,11.5,0,0,1-3.53-8.57,11.5,11.5,0,0,1,3.53-8.57,12.68,12.68,0,0,1,17.38,0,11.5,11.5,0,0,1,3.53,8.57A11.5,11.5,0,0,1,145.23,23.68Zm-1.76-8.56a7.61,7.61,0,0,0-2-5.31,6.59,6.59,0,0,0-9.82,0,7.62,7.62,0,0,0-2,5.31,7.56,7.56,0,0,0,2,5.29,6.62,6.62,0,0,0,9.82,0A7.55,7.55,0,0,0,143.46,15.12Z"/><path class="cls-2" d="M136.54,28.42a13.26,13.26,0,0,1-9.59-3.81,12.79,12.79,0,0,1-3.92-9.5,12.79,12.79,0,0,1,3.92-9.5,14,14,0,0,1,19.19,0,12.79,12.79,0,0,1,3.92,9.5,12.79,12.79,0,0,1-3.92,9.5h0A13.25,13.25,0,0,1,136.54,28.42Zm0-24a10.63,10.63,0,0,0-7.79,3.08,10.17,10.17,0,0,0-3.14,7.65,10.17,10.17,0,0,0,3.14,7.65,11.39,11.39,0,0,0,15.58,0h0a10.17,10.17,0,0,0,3.14-7.65,10.17,10.17,0,0,0-3.14-7.65A10.62,10.62,0,0,0,136.54,4.38Zm0,19.51a7.68,7.68,0,0,1-5.86-2.6,8.85,8.85,0,0,1-2.34-6.17,8.91,8.91,0,0,1,2.33-6.18,7.88,7.88,0,0,1,11.73,0,8.91,8.91,0,0,1,2.33,6.18,8.84,8.84,0,0,1-2.34,6.17A7.66,7.66,0,0,1,136.55,23.89Zm0-15.22a5.3,5.3,0,0,0-4.11,1.84,6.55,6.55,0,0,0-1.72,4.61,6.49,6.49,0,0,0,1.72,4.59,5.53,5.53,0,0,0,8.22,0,6.49,6.49,0,0,0,1.72-4.59,6.55,6.55,0,0,0-1.73-4.61A5.29,5.29,0,0,0,136.55,8.67Z"/><path class="cls-2" d="M182.86.73H191a.51.51,0,0,1,.51.51V39.39h-8.63L164.44,15.17V39.39h-8.2a.42.42,0,0,1-.42-.42V.73h8.08l19,24.89Z"/><path class="cls-1" d="M79.52,1.79h6.17V19.61L102.39,1.82a.1.1,0,0,1,.07,0h7.8l-14.69,16,14.89,20.54h-7.32L91,22.32l-5.33,5.75V38.17a.15.15,0,0,1-.15.15h-6Z"/><path class="cls-1" d="M112.23,39.22H102.7L91,23.72l-4.36,4.71v9.74a1.05,1.05,0,0,1-1,1H78.63V.89h8V17.34L102,.92l.46,0h9.84l-15.57,17Zm-8.63-1.8h5.11L94.41,17.71l13.8-15h-5.4l-18,19.19V2.69H80.42V37.42h4.37v-9.7l6.3-6.79Z"/><path class="cls-1" d="M58.33,20.55l3.17,4.91a.1.1,0,0,0,.08,0h3.74v5.08a15.79,15.79,0,0,1-8.7,2.25A12.3,12.3,0,0,1,44.1,19.95a12.39,12.39,0,0,1,3.76-9.41A13,13,0,0,1,57.17,7a16.33,16.33,0,0,1,5,.71,12.84,12.84,0,0,1,4.31,2.53l3.29-4.7A19.14,19.14,0,0,0,56.7.9,18.56,18.56,0,0,0,43.24,6.33a18.21,18.21,0,0,0-5.57,13.59A18,18,0,0,0,43.14,33.4,18.65,18.65,0,0,0,56.7,38.74q9.62,0,14.79-5.7V20.55Z"/><path class="cls-1" d="M56.7,39.63A19.59,19.59,0,0,1,42.51,34a19,19,0,0,1-5.73-14.13A19.16,19.16,0,0,1,42.61,5.69,19.51,19.51,0,0,1,56.7,0,20.09,20.09,0,0,1,70.41,4.82l.6.53-4.32,6.17-.75-.64a12,12,0,0,0-4-2.36,15.51,15.51,0,0,0-4.76-.66,12,12,0,0,0-8.68,3.33A11.43,11.43,0,0,0,45,19.95a11.4,11.4,0,0,0,11.62,12,15.33,15.33,0,0,0,7.8-1.85V26.4H61.09l-.35-.46-4.06-6.29H72.39V33.39l-.23.26C68.54,37.62,63.34,39.63,56.7,39.63Zm0-37.84A17.76,17.76,0,0,0,43.87,7a17.42,17.42,0,0,0-5.29,12.94,17.26,17.26,0,0,0,5.19,12.84A17.86,17.86,0,0,0,56.7,37.84c6,0,10.64-1.73,13.89-5.15V21.45H60l2,3.16h4.2v6.47l-.41.27a16.76,16.76,0,0,1-9.19,2.39A13.19,13.19,0,0,1,43.2,19.95a13.31,13.31,0,0,1,4-10.06,13.91,13.91,0,0,1,9.92-3.83,17.29,17.29,0,0,1,5.32.75A13.1,13.1,0,0,1,66.34,8.9l2.27-3.24A18.54,18.54,0,0,0,56.7,1.8Z"/><path class="cls-1" d="M30.22,28.23a18.9,18.9,0,0,1-4.81,3.42,12.9,12.9,0,0,1-5.49,1.07A12.1,12.1,0,0,1,11.06,29a12.63,12.63,0,0,1-3.74-9.3,12.07,12.07,0,0,1,3.76-9.15A13,13,0,0,1,20.39,7a13.84,13.84,0,0,1,5.46,1,17.14,17.14,0,0,1,4.94,3.5l0,0L34.13,6.8a.21.21,0,0,0,0-.26A18.31,18.31,0,0,0,20.52.9,19.3,19.3,0,0,0,6.47,6.33,18.21,18.21,0,0,0,.9,19.92,18,18,0,0,0,6.36,33.4a18.88,18.88,0,0,0,13.74,5.33,18.14,18.14,0,0,0,13.49-5.8Z"/><path class="cls-1" d="M20.11,39.63A19.83,19.83,0,0,1,5.73,34,19,19,0,0,1,0,19.92,19.16,19.16,0,0,1,5.84,5.69,20.25,20.25,0,0,1,20.52,0,19.26,19.26,0,0,1,34.75,5.91a1.1,1.1,0,0,1,.11,1.42L31.48,12l-.62.68-.69-.61A16.34,16.34,0,0,0,25.5,8.78a13,13,0,0,0-5.11-.92,12,12,0,0,0-8.68,3.33,11.11,11.11,0,0,0-3.48,8.49,11.66,11.66,0,0,0,3.47,8.67,11.14,11.14,0,0,0,8.22,3.47,12.07,12.07,0,0,0,5.11-1,18.09,18.09,0,0,0,4.57-3.26l.75-.7L34.77,33l-.52.54A19.09,19.09,0,0,1,20.11,39.63ZM20.52,1.8A18.51,18.51,0,0,0,7.09,7,17.42,17.42,0,0,0,1.8,19.92,17.26,17.26,0,0,0,7,32.76a18.09,18.09,0,0,0,13.12,5.07,17.26,17.26,0,0,0,12.32-5l-2.35-3.26a18.66,18.66,0,0,1-4.29,2.9,13.84,13.84,0,0,1-5.87,1.16,13,13,0,0,1-9.49-4,13.55,13.55,0,0,1-4-9.94,13,13,0,0,1,4-9.8,13.9,13.9,0,0,1,9.92-3.83,14.79,14.79,0,0,1,5.81,1.07,16.83,16.83,0,0,1,4.45,3l2.4-3.35A17.5,17.5,0,0,0,20.52,1.8ZM33.4,6.28h0Z"/></g></g></svg>