<svg xmlns="http://www.w3.org/2000/svg" viewBox="0 0 323.05 60.1"><defs><style>.cls-1{fill:#fff;}</style></defs><title>Asset 3</title><g id="Layer_2" data-name="Layer 2"><g id="Layer_1-2" data-name="Layer 1"><path class="cls-1" d="M230.65,18.19A2.25,2.25,0,0,0,228.22,17a23,23,0,0,0-3.73.5c-1,.12-2,.22-3,.29-4.29.29-4.3.16-7.08.48.18-.32-12.63,1-13.87,1.12-1.82.17-3.65.3-5.47.42-2.85.19-5.69.47-8.55.62-.51,0-8.07,1-8.07,1-5.1.26-13,1.29-17.7,1.61-.9.06-1.82,0-2.71.11a1.28,1.28,0,0,0-1,1.51c.46,1.23.63,1.29,2.47,1.18,3.2-.19,6.87-.67,10.05-.94,1.67-.14,10.77-.64,11.51-1.15,5.25-.31,13-1.1,18.29-1.46a16.56,16.56,0,0,0,2.17-.18s11.68-1,14-1.12c.68,0,1.37-.06,2.06-.08l6.95-.2v0l.29,0,1,0,.62,0a3.58,3.58,0,0,1,1.13.28,2,2,0,0,0,2.6-.41A2.08,2.08,0,0,0,230.65,18.19Z"/><path class="cls-1" d="M321.17,43.44A8.46,8.46,0,0,0,319.1,45,17.78,17.78,0,0,1,316,48.47a34.54,34.54,0,0,1-4.21,2.38,19.24,19.24,0,0,1-9.75,2A3.28,3.28,0,0,1,299.8,52a2.87,2.87,0,0,1-.5-2.11c.19-2.82,2.86-8.58,4.61-10.87a61.45,61.45,0,0,1,5.95-6.29,81.83,81.83,0,0,0,9-10.3,15.11,15.11,0,0,0,2.94-6c.17-.92,0-2.15-1-2.34a2,2,0,0,0-.59,0,12.45,12.45,0,0,0-8.4,5.49c-2.41,3.53-4.32,7.5-6.36,11.24a42.66,42.66,0,0,1-4.6,6.58,1.81,1.81,0,0,0-.83-.64,4.64,4.64,0,0,0-1.88-.17,74.34,74.34,0,0,0-19.87,3.81c-1.19.4-2.36.83-3.57,1.16-1,.25-2.08.6-2.73-.38a20.91,20.91,0,0,0-1.68-2.49,4.09,4.09,0,0,0-3.71-1.39c-2.56.37-5.11.9-7.67,1.28a75.4,75.4,0,0,0-10.62,2.31c-1.31.4-2.69.61-4,.91a1.16,1.16,0,0,1-1.33-.9,8.15,8.15,0,0,0-1.11-2.06,11.75,11.75,0,0,0-3.16-3,6.28,6.28,0,0,0-4.16-.43,18.74,18.74,0,0,0-7.69,2.81,55.43,55.43,0,0,0-8.56,7.62,18.17,18.17,0,0,0-1.88,2.37,8.53,8.53,0,0,0-1.42,5.68,3.16,3.16,0,0,0,1.56,2.45,8,8,0,0,0,4.13,1.28c8-.67,14.69-5.23,19.4-11.61a3.81,3.81,0,0,1,2.67-1.39A73.83,73.83,0,0,0,251,42.9a2.31,2.31,0,0,0-.2.19l-.6.48a15,15,0,0,0-1.31,1.14c-1.76,1.77-3.86,4-4.83,6.33a4.71,4.71,0,0,0,.83,4.78,6.12,6.12,0,0,0,4.42,2.32,15.28,15.28,0,0,0,8-1.6,44.86,44.86,0,0,0,7.82-4.71A50.18,50.18,0,0,0,269.38,48a15.69,15.69,0,0,1,4.94-3.31l1.81-.67q2.37-.85,4.78-1.56a.82.82,0,0,1,.41,0c.89.2.14.48-.05.68q-.9,1-1.74,2a37,37,0,0,0-3.19,3.8c-.8,1.29-1.7,2.76-1.55,4.34.26,2.73,4,4.87,6.57,4.79,3.52-.1,6.57-2.62,9-4.74,2.26-1.93,4.38-4,6.49-6.06-.3,1.09-.74,2.47-.77,2.62a5,5,0,0,0,2,4.74A7.92,7.92,0,0,0,302,55.84a20.18,20.18,0,0,0,8.25-1.25,30.88,30.88,0,0,0,7.2-3.11,13.84,13.84,0,0,0,5.33-5.66C323.23,44.79,322.43,44,321.17,43.44Zm-13-13.2c.6-1.1,1.2-2.2,1.88-3.26s1.37-2.25,2.18-3.29c.59-.76,1.21-1.5,1.85-2.23.79-.89,3.65-4.13,5-4.39.12.44-1.36,2.75-1.86,3.4-1,1.3-2,2.59-3.06,3.87-1.45,1.79-2.84,3.6-4.43,5.25a18.82,18.82,0,0,1-2.59,2.67c-.21.15-.54,1.16-.79,1.22C306.85,32.37,307.56,31.31,308.14,30.24ZM237.72,44.82a1.29,1.29,0,0,1-.43.57q-2.48,2.27-5.09,4.4c-3.22,2.63-7,4.88-11.38,4.68q-.44,0-.88-.07a3.37,3.37,0,0,1-1-.24c-1.38-.63-.86-2.34-.3-3.34a23.71,23.71,0,0,1,5.24-6.46c2.05-1.78,4.34-3.87,6.92-4.89a.85.85,0,0,1,1.18.39,5.25,5.25,0,0,1,.14,1.06,2.51,2.51,0,0,0,.84,1.4,5.22,5.22,0,0,0,2.26,1.24C235.79,43.68,238,43.88,237.72,44.82Zm1.95-3.46c-.22.52-1.66.44-3.23-.16s-2.67-1.51-2.45-2,1.66-.44,3.23.16S239.88,40.84,239.67,41.36Zm26.18-.78c1.37.17,2.43.67,2.37,1.11s-1.23.65-2.6.48-2.43-.67-2.37-1.11S264.48,40.4,265.85,40.58Zm-2.56,9.48c-1.86,1.21-3.73,2.39-5.65,3.5a12.72,12.72,0,0,1-4.53,1.59,12.88,12.88,0,0,1-2.55.17,3.73,3.73,0,0,1-1.85-.52,2.47,2.47,0,0,1-.91-1.26,4.08,4.08,0,0,1,.57-3.74,20.64,20.64,0,0,1,3.08-3.37,22,22,0,0,1,5-3.85,11.84,11.84,0,0,1,3.65-1.38c.7-.09.71,2,2.23,2.86,2.52.91,6.24.13,7.38-.16C269.75,44.43,264.87,49,263.29,50.05Zm35-9.74c-4.84,5.38-7.8,10.08-14.46,13.69a4,4,0,0,1-4.49-.34c-1.88-1.44-.3-3.53.77-4.93,2.24-2.94,4.31-4.25,7.59-6.11,3.05-1.72,6.64-3.16,10.27-3.09.33,0,.67,0,1,0Z"/><path class="cls-1" d="M250.56,58.34q-.62,0-1.24-.06a6.26,6.26,0,0,1-4.52-2.38A4.84,4.84,0,0,1,244,51c1-2.34,3-4.52,4.86-6.37a15.12,15.12,0,0,1,1.32-1.16l.17-.14.14-.11a76.26,76.26,0,0,1-7.72,1.6,3.67,3.67,0,0,0-2.57,1.33c-5.09,6.9-12,11-19.51,11.67a8.16,8.16,0,0,1-4.22-1.3,3.31,3.31,0,0,1-1.63-2.56,8.67,8.67,0,0,1,1.44-5.78,18.2,18.2,0,0,1,1.89-2.39,55,55,0,0,1,8.59-7.63,19.12,19.12,0,0,1,7.74-2.83,6.26,6.26,0,0,1,4.25.45,11.79,11.79,0,0,1,3.2,3,8.3,8.3,0,0,1,1.13,2.1c.11.3.43,1,1.16.81l1.31-.27c.9-.18,1.83-.37,2.72-.64a75.6,75.6,0,0,1,10.64-2.32c1.21-.18,2.44-.4,3.62-.61s2.69-.48,4-.67a4.22,4.22,0,0,1,3.84,1.43,11.44,11.44,0,0,1,1.19,1.71c.16.27.33.54.5.8.57.86,1.54.6,2.47.35l.11,0c.95-.25,1.89-.58,2.8-.89l.77-.26a74.35,74.35,0,0,1,19.9-3.82,4.76,4.76,0,0,1,1.94.17,2,2,0,0,1,.78.55,41.89,41.89,0,0,0,4.47-6.42c.54-1,1.07-2,1.59-3a85.5,85.5,0,0,1,4.78-8.27c1.65-2.41,4.75-5.14,8.51-5.55a2.09,2.09,0,0,1,.63,0c1,.19,1.32,1.4,1.12,2.5a15.27,15.27,0,0,1-3,6,81.75,81.75,0,0,1-9,10.32l-1,1a49.35,49.35,0,0,0-4.9,5.27c-1.67,2.19-4.38,7.89-4.58,10.79a2.78,2.78,0,0,0,.46,2,3.17,3.17,0,0,0,2.15.81,19.13,19.13,0,0,0,9.68-2,34.36,34.36,0,0,0,4.19-2.37A17.74,17.74,0,0,0,319,44.92a4.52,4.52,0,0,1,1.4-1.13c.24-.15.48-.3.71-.46l.07,0,.08,0A3,3,0,0,1,323,44.75a1.42,1.42,0,0,1,0,1.13,13.8,13.8,0,0,1-5.38,5.72,31.25,31.25,0,0,1-7.23,3.13A20.75,20.75,0,0,1,302,56,7.94,7.94,0,0,1,298,54.69,5.11,5.11,0,0,1,296,49.81c0-.08.09-.33.25-.86.11-.37.25-.81.38-1.25-1.86,1.82-3.94,3.83-6.11,5.69s-5.44,4.66-9.13,4.77a7.62,7.62,0,0,1-4.23-1.37,5.09,5.09,0,0,1-2.49-3.55c-.16-1.65.8-3.19,1.57-4.43a18.29,18.29,0,0,1,2.11-2.59c.39-.42.75-.82,1.09-1.22.55-.66,1.13-1.32,1.74-2a1.39,1.39,0,0,1,.22-.17,1.13,1.13,0,0,0,.22-.18h0a2.33,2.33,0,0,0-.31-.09.72.72,0,0,0-.33,0c-1.6.47-3.21,1-4.78,1.56l-1.81.67a15.73,15.73,0,0,0-4.89,3.28l-1.1,1a32.08,32.08,0,0,1-3.12,2.75,44.93,44.93,0,0,1-7.84,4.72A16.13,16.13,0,0,1,250.56,58.34ZM251.07,43s0,0-.07.08l-.09.08-.43.35-.17.13A14.76,14.76,0,0,0,249,44.82c-1.83,1.84-3.85,4-4.8,6.28a4.56,4.56,0,0,0,.81,4.63A6,6,0,0,0,249.35,58a15.09,15.09,0,0,0,7.95-1.59,44.5,44.5,0,0,0,7.79-4.69A31.53,31.53,0,0,0,268.18,49l1.11-1.05a16,16,0,0,1,5-3.34l1.81-.67c1.58-.56,3.19-1.09,4.79-1.57a1,1,0,0,1,.48-.05c.24.05.5.13.53.33s-.17.34-.34.46l-.17.13c-.6.64-1.19,1.3-1.73,2-.34.41-.71.81-1.1,1.23A18.08,18.08,0,0,0,276.46,49c-.75,1.2-1.68,2.7-1.52,4.25.24,2.51,3.67,4.66,6.28,4.66h.14c3.31-.1,6.12-2.28,8.95-4.7,2.32-2,4.53-4.15,6.49-6.06l.38-.37-.14.51c-.16.59-.37,1.26-.52,1.78s-.23.76-.24.82a4.82,4.82,0,0,0,2,4.6A7.66,7.66,0,0,0,302,55.69a20.33,20.33,0,0,0,8.19-1.24,31,31,0,0,0,7.17-3.1,13.52,13.52,0,0,0,5.28-5.59,1.14,1.14,0,0,0,0-.91,2.66,2.66,0,0,0-1.49-1.25c-.21.15-.44.29-.66.42a4.26,4.26,0,0,0-1.32,1.05,18,18,0,0,1-3.12,3.5,34.5,34.5,0,0,1-4.24,2.4A19.33,19.33,0,0,1,302,53a3.42,3.42,0,0,1-2.34-.91,3,3,0,0,1-.53-2.22c.2-2.94,2.95-8.73,4.63-10.94a49.31,49.31,0,0,1,4.93-5.3l1-1a81.39,81.39,0,0,0,9-10.28,15,15,0,0,0,2.92-5.9c.14-.78,0-2-.89-2.17a1.9,1.9,0,0,0-.54,0c-3.66.41-6.69,3.07-8.3,5.43a85.13,85.13,0,0,0-4.76,8.24c-.52,1-1.06,2-1.6,3A42.45,42.45,0,0,1,301,37.5l-.12.14-.11-.15a1.66,1.66,0,0,0-.77-.59,4.48,4.48,0,0,0-1.82-.16,74.07,74.07,0,0,0-19.83,3.81l-.77.26c-.92.32-1.86.64-2.82.9l-.11,0c-.94.25-2.1.56-2.78-.47-.18-.26-.34-.54-.51-.81a11.15,11.15,0,0,0-1.16-1.66,3.94,3.94,0,0,0-3.58-1.34c-1.35.2-2.72.44-4,.67s-2.42.43-3.63.61A75.16,75.16,0,0,0,248.32,41c-.9.27-1.84.46-2.75.65l-1.3.27a1.28,1.28,0,0,1-1.5-1,8,8,0,0,0-1.09-2A11.5,11.5,0,0,0,238.57,36a6,6,0,0,0-4.06-.41,18.86,18.86,0,0,0-7.63,2.78,54.83,54.83,0,0,0-8.54,7.6,17.8,17.8,0,0,0-1.86,2.35,8.4,8.4,0,0,0-1.39,5.59,3,3,0,0,0,1.5,2.34,7.82,7.82,0,0,0,4,1.25c7.4-.62,14.26-4.72,19.3-11.55a4,4,0,0,1,2.77-1.44A73.74,73.74,0,0,0,251,42.76h0l.08.28Zm0,12.43h-.48a3.84,3.84,0,0,1-1.93-.54,2.62,2.62,0,0,1-1-1.33,4.24,4.24,0,0,1,.59-3.87,20.84,20.84,0,0,1,3.1-3.4l.33-.31a20.49,20.49,0,0,1,4.7-3.56l.35-.18A10.57,10.57,0,0,1,260.07,41c.42-.06.62.4.87,1a3.77,3.77,0,0,0,1.46,1.92c2.68,1,6.81-.06,7.27-.18l.17,0v.17c.05.69-5.14,5.42-6.48,6.3h0c-2.12,1.38-3.92,2.5-5.66,3.51a12.93,12.93,0,0,1-4.58,1.61A14.65,14.65,0,0,1,251,55.47Zm9.1-14.14h0a10.39,10.39,0,0,0-3.25,1.19l-.36.18a20.32,20.32,0,0,0-4.63,3.52l-.33.31a20.53,20.53,0,0,0-3.06,3.35,3.91,3.91,0,0,0-.55,3.62,2.35,2.35,0,0,0,.85,1.19,3.55,3.55,0,0,0,1.78.49,13,13,0,0,0,2.52-.17,12.65,12.65,0,0,0,4.48-1.57c1.73-1,3.53-2.12,5.64-3.5h0a41.87,41.87,0,0,0,6.25-5.83c-1.19.28-4.7,1-7.18.09a4,4,0,0,1-1.6-2.06C260.46,41.64,260.32,41.33,260.13,41.33Zm21.72,13.36a4.16,4.16,0,0,1-2.56-.92c-2-1.53-.28-3.78.74-5.13,2.29-3,4.41-4.33,7.63-6.14a20.92,20.92,0,0,1,10.07-3.11h.44c.27,0,.55,0,.82,0l.34,0-.38.43-.53.59h0c-1.07,1.19-2.05,2.35-3,3.47-3.37,4-6.29,7.43-11.49,10.25A4.38,4.38,0,0,1,281.85,54.69Zm15.89-15a20.65,20.65,0,0,0-9.93,3.07c-3.19,1.8-5.29,3.1-7.55,6.07-1,1.34-2.56,3.37-.79,4.72a3.8,3.8,0,0,0,4.33.33c5.16-2.79,8.06-6.22,11.41-10.18,1-1.12,1.93-2.28,3-3.48h0l.46-.52h-.95ZM221.37,54.62h-.55c-.29,0-.59,0-.89-.07a3.52,3.52,0,0,1-1-.25,1.54,1.54,0,0,1-.87-.94,3.71,3.71,0,0,1,.51-2.6,23.94,23.94,0,0,1,5.27-6.5l.46-.4a24.08,24.08,0,0,1,6.5-4.51,1.18,1.18,0,0,1,.9,0,.86.86,0,0,1,.46.49,2.27,2.27,0,0,1,.12.7,3.57,3.57,0,0,0,0,.38,2.41,2.41,0,0,0,.79,1.32,5.08,5.08,0,0,0,2.19,1.2l.37.07c.73.13,1.82.32,2.16.85a.64.64,0,0,1,.08.53h0a1.42,1.42,0,0,1-.47.63c-1.64,1.5-3.36,3-5.1,4.41C229.79,51.94,226,54.62,221.37,54.62Zm9.88-15.1a1.08,1.08,0,0,0-.39.08,23.92,23.92,0,0,0-6.42,4.46l-.46.4a23.66,23.66,0,0,0-5.21,6.42,3.43,3.43,0,0,0-.48,2.37A1.27,1.27,0,0,0,219,54a3.26,3.26,0,0,0,1,.23c.29,0,.58.06.86.07h.54c4.51,0,8.27-2.64,10.75-4.66,1.73-1.42,3.45-2.9,5.09-4.4a1.17,1.17,0,0,0,.38-.5h0a.35.35,0,0,0,0-.3c-.27-.42-1.37-.62-2-.72l-.38-.07a5.38,5.38,0,0,1-2.32-1.27,2.68,2.68,0,0,1-.88-1.48,3.67,3.67,0,0,1,0-.41,2,2,0,0,0-.1-.62.57.57,0,0,0-.31-.33A.73.73,0,0,0,231.25,39.52Zm35.31,2.85a7.67,7.67,0,0,1-1-.06,4,4,0,0,1-2.38-.91.48.48,0,0,1-.11-.36c.09-.61,1.46-.77,2.76-.6h0a4,4,0,0,1,2.38.91.48.48,0,0,1,.11.36C268.29,42.17,267.5,42.37,266.56,42.37Zm-1.77-1.82c-1.07,0-1.72.24-1.76.48a.24.24,0,0,0,.06.17,4.33,4.33,0,0,0,2.53.92c1.68.21,2.77-.1,2.82-.41a.24.24,0,0,0-.06-.17,4.33,4.33,0,0,0-2.53-.92h0A8.54,8.54,0,0,0,264.78,40.55Zm-26,1.29a7.11,7.11,0,0,1-2.36-.51,4.7,4.7,0,0,1-2.51-1.75.58.58,0,0,1,0-.46c.29-.69,2-.47,3.42.08a4.69,4.69,0,0,1,2.51,1.75.58.58,0,0,1,0,.46C239.67,41.72,239.27,41.84,238.74,41.84Zm-4-3c-.47,0-.78.1-.86.28a.34.34,0,0,0,0,.26,5,5,0,0,0,2.54,1.73c1.73.67,3.13.67,3.3.26a.33.33,0,0,0,0-.26,5,5,0,0,0-2.54-1.73A7.22,7.22,0,0,0,234.75,38.86Zm71.35-5.17.12-.26a22.2,22.2,0,0,1,1.13-2.09c.23-.39.45-.77.66-1.16h0c.6-1.11,1.2-2.2,1.88-3.27l.53-.83a28.14,28.14,0,0,1,1.66-2.47c.57-.73,1.2-1.48,1.86-2.23,2.44-2.76,4.17-4.26,5.12-4.44l.13,0,0,.13c.15.57-1.58,3.13-1.88,3.52-.88,1.14-1.83,2.34-3.07,3.87l-.75.93c-1.17,1.45-2.37,3-3.69,4.33-.32.33-.59.65-.85,1a9.6,9.6,0,0,1-1.76,1.73,2.26,2.26,0,0,0-.28.48c-.22.44-.37.72-.57.76Zm2.16-3.38c-.21.39-.44.78-.67,1.17l-.28.47a10.16,10.16,0,0,0,1.45-1.49c.26-.31.54-.63.86-1,1.31-1.36,2.51-2.86,3.67-4.31l.75-.93c1.24-1.53,2.18-2.73,3.06-3.87a15.59,15.59,0,0,0,1.82-3.12c-.68.24-2.05,1.21-4.77,4.29-.66.75-1.28,1.5-1.85,2.22a27.84,27.84,0,0,0-1.64,2.44l-.53.84c-.68,1.06-1.27,2.14-1.87,3.25Z"/><path class="cls-1" d="M225,.23a18.33,18.33,0,0,0-8.34,5.14c-1.27,1.38-2.45,2.84-3.57,4.32-2.14,2.84-4.17,5.76-6.33,8.59-2.87,3.75-5.49,7.58-5.85,8.28-.46.89-1,1.74-1.54,2.59-.91,1.41-1.91,2.78-2.78,4.22A21.59,21.59,0,0,1,192,38.73c-2.59,2.17-5.07,4.44-7.64,6.64s-4.83,4.35-7.39,6.35A16.46,16.46,0,0,1,170.66,55a4.28,4.28,0,0,1-1.55.13,1.8,1.8,0,0,1-1.29-.73c-.89-1.41,1.07-4.17,1.66-5.44.92-2,1.86-3.94,3-5.83s2-4.07,3.17-6,2.76-4,4.25-5.94,3-3.87,4.55-5.79a29.12,29.12,0,0,0,2.79-3.71c.82-1.47,1.66-2.92,2.46-4.4a2.93,2.93,0,0,0,.28-.94,1.19,1.19,0,0,0-1.76-1.1,4,4,0,0,0-.84.58c-.57.63-1.12,1.28-1.64,2-1.34,1.75-2.63,3.53-4,5.27s-6.15,8.62-7.57,10.24-3.14,3.22-4.74,4.81l-.21.2q-5.08,5.06-10.34,10c-1.56,1.46-3.26,2.77-4.94,4.11a18.16,18.16,0,0,1-2.79,2c-.7.37-3.5,1.61-3.87.28a2.82,2.82,0,0,1,0-1.46,13.47,13.47,0,0,1,2.26-4.47c1.95-2.6,3.21-5.52,4.72-8.33a9.44,9.44,0,0,0,1-3.34,4.25,4.25,0,0,0-.41-2.42,1.7,1.7,0,0,0-1.72-.89,7.4,7.4,0,0,0-1.5.47c-1.54.83-3.06,1.68-4.55,2.58l-3.91,2.39a7.72,7.72,0,0,1-1.76,1,24.72,24.72,0,0,0,2.32-3.91,3.38,3.38,0,0,0,.27-1.93,1.4,1.4,0,0,0-2-1A19.82,19.82,0,0,0,137,37.15a69.5,69.5,0,0,1-10.21,8.42,76.7,76.7,0,0,1-11.37,6.77c-2.15,1-5.32,2.68-7.8,2-.58-.15-1.2-.71-.62-1.25s6-5,8.24-6.86a67,67,0,0,0,5.11-4.66c1.51-1.53,3.22-4,2.33-6.19-1.11-2.75-4.59-1.23-6.57-.33-4,1.81-6.76,5-9.32,8.29-1.45,1.84-3.25,3.88-3.76,6.17a5.25,5.25,0,0,1-2.8,3.87A43.58,43.58,0,0,1,91,57.16a6.13,6.13,0,0,1-4.64-.47,1.37,1.37,0,0,1-.81-1.63,13.75,13.75,0,0,1,1.13-2.23A44.37,44.37,0,0,1,98.76,41c.29-.18.53-.42.8-.63.86-.67,0-2.09-.93-2.13a3.78,3.78,0,0,0-1.49.35,28.14,28.14,0,0,1-6.59,1.61c-1.35.16-5,.84-3.82-1.52A26.55,26.55,0,0,0,88,36a2.37,2.37,0,0,0,0-1.45,2.75,2.75,0,0,0-3-1.56,9.22,9.22,0,0,0-4.53,2.47c-1.66,1.73,0,3.87-.87,5.78a4.8,4.8,0,0,1-1.27,1.49,73.75,73.75,0,0,1-14.53,10c-.77.41-1.57.78-2.37,1.13a23.82,23.82,0,0,1-3.45,1.22c-.9.24-2.4.8-3.23.15a2,2,0,0,1-.48-1.85c.73-5.44,5.92-9.07,9.52-13a5.34,5.34,0,0,0,1.44-2.44c.11-.53.07-1.07.17-1.6s.37-1,.45-1.61a1.07,1.07,0,0,0-.37-.9c-1.89-2.07-5.4-.24-7.47.56A60.13,60.13,0,0,0,49,38.69a49.07,49.07,0,0,0-7.53,5.25c-1.8,1.58-8.39,7.92-8.88,9.85A3.06,3.06,0,0,0,33.49,57a6.1,6.1,0,0,0,3.81.91,21.56,21.56,0,0,0,10.24-3.42c.58-.38,1.2-.7,1.81-1a1,1,0,0,1,1.28.47c.14.65.2,1.31.41,1.94a4.13,4.13,0,0,0,4.58,2.6c8.55-1.69,16.09-6.58,22.57-11.84l3.57-2.92c1-.83,2.2-.6,3.45-.59l4.35,0a.85.85,0,0,1,.47.09.48.48,0,0,1,.17.5,1.32,1.32,0,0,1-.27.49c-1.8,2.38-4.1,4.41-5.86,6.85a11,11,0,0,0-1.82,4.1,3,3,0,0,0,.29,1.92,3.61,3.61,0,0,0,1.29,1.55,7.11,7.11,0,0,0,3.42,1.28,16.4,16.4,0,0,0,6.81-.8,47.23,47.23,0,0,0,5.35-2.22c.94-.47,1.91-.87,2.86-1.3a1.14,1.14,0,0,1,1,.08,8.26,8.26,0,0,0,2.88,1.22,14.59,14.59,0,0,0,7.8-1c1.86-.9,3.77-1.7,5.62-2.61A52.81,52.81,0,0,0,125,49.92q3.49-2.28,6.8-4.8c1.06-.81,2.46-2.26,3.79-2.73a13.52,13.52,0,0,0-.71,1.4c-.4.58-.83,1.15-1.27,1.71-2.66,3.38-5.59,6.64-8.43,9.9-.44.51-1.26,1-1.63,1.52s.28,1.8,1.05,2.12c.57.23,1.18-.39,1.55-.72,1.4-1.26,2.76-2.57,4.11-3.88,4.55-4.41,9.22-8.71,14.16-12.74a36,36,0,0,1,6.44-4.38c1.37-.7,1.23,1.28.92,1.88-1.28,2.47-2.68,4.9-4.12,7.3a31.29,31.29,0,0,0-3.47,6.95c-.37,1.21-.5,2.81.62,3.74a3.64,3.64,0,0,0,2,.68,10.67,10.67,0,0,0,7.27-2.28,68.44,68.44,0,0,0,8.75-7.22c.9-.9,1.75-1.85,2.73-2.68l1.79-1.55.86-.77a5.06,5.06,0,0,1,.7-.5c0,1.12-1.14,2.57-1.62,3.56-1.11,2.3-2.1,4.61-3,7a2.27,2.27,0,0,0,.53,2.32,6.16,6.16,0,0,0,3.92,2.07,9.73,9.73,0,0,0,3.75-.48,21.1,21.1,0,0,0,7.67-3.87c1.09-.92,5.65-4.7,6.85-5.69a1.4,1.4,0,0,1-.34,1,33.92,33.92,0,0,1-3.23,4.79c-1.2,1.66-1.38,2.13-2.57,3.8a1.88,1.88,0,0,0-.5,1.24,1.37,1.37,0,0,0,1.1,1,2.22,2.22,0,0,0,1.4-.12,4.1,4.1,0,0,0,1-.7c4.23-3.67,7-6.5,10.9-10.49a63.56,63.56,0,0,1,13-10.12c.62-.37,1.25-.73,1.89-1.07.21-.11,1.71-.75,3.21-1.28,1.4-.32,3.67-.63,2,1.24a82.15,82.15,0,0,0-10,14.21,22.91,22.91,0,0,0-1.41,3.08,3.32,3.32,0,0,0,.26,2.81,2.89,2.89,0,0,0,1.69,1.38c2.32.75,4.75-1.15,3.5-1.47a3.6,3.6,0,0,1-2.29-1.26c-.57-1,.36-2.18.87-3,.7-1.19,1.41-2.37,2.16-3.54a62.85,62.85,0,0,1,4.77-6.58c1.08-1.29,2.22-2.56,3.23-3.9A12.71,12.71,0,0,0,219,36.24a1.33,1.33,0,0,0,.1-.41.53.53,0,0,0,0-.14c.13-2.55-1.21-2.61-2.2-3-1.22-.5-6,.82-7.12,1.32a54,54,0,0,0-18.7,13.48h0c.21-.35.41-.71.6-1.07a48.12,48.12,0,0,1,5.33-8A26,26,0,0,1,200,35.34c3.12-2.86,6.41-5.54,9.53-8.39a63.33,63.33,0,0,0,7.93-8.88c1.62-2.15,3.23-4.33,4.93-6.43,2.26-2.8,4.3-5.41,4.8-9C227.33,1.51,226.65-.26,225,.23ZM50.37,49.4C44.07,54,40,54.83,37.56,54.65a1.45,1.45,0,0,1-.75-.21,1,1,0,0,1-.17-1.21,10.8,10.8,0,0,1,1.87-2.06c.77-.8,1.54-1.6,2.32-2.39a59.45,59.45,0,0,1,4.83-4.44,45.37,45.37,0,0,1,10-5.94c1.07-.48,2.14-.94,3.23-1.35A7.35,7.35,0,0,1,61,36.29c1.25-.05.69.85.17,1.49C57.71,42.18,54.71,46.25,50.37,49.4ZM83.93,37.46c-.61.58-2.07,1.22-2.26.73s.39-1.33.88-1.69c.68-.51,2.42-1.33,2.75-.93S84.66,36.77,83.93,37.46Zm23.57,9.33a43.49,43.49,0,0,1,8.13-8.48,5.18,5.18,0,0,1,2.27-1.2,1.07,1.07,0,0,1,1,.18.61.61,0,0,1,0,.85,4.16,4.16,0,0,1-.59.8c-2,1.85-4,4.18-6,6a37.6,37.6,0,0,1-5.72,4.42A6.93,6.93,0,0,1,107.5,46.79ZM222.5,6A151.07,151.07,0,0,1,213,18.46c-2.21,2.48-9.48,10-10.81,11.38a12.29,12.29,0,0,0-1.71,1.76l2.74-4.47c.63-1.11,5.47-7.3,5.63-7.52q3.1-4.13,6.23-8.23C217,8.9,219,6.4,221.86,4.9a.58.58,0,0,1,.83.55A1.29,1.29,0,0,1,222.5,6Z"/><path class="cls-1" d="M88.78,60.1q-.76,0-1.55-.06a7.21,7.21,0,0,1-3.49-1.3,3.77,3.77,0,0,1-1.34-1.61,3.07,3.07,0,0,1-.3-2A11.18,11.18,0,0,1,84,51,40.09,40.09,0,0,1,87,47.32c.95-1,1.92-2.09,2.77-3.21a1.21,1.21,0,0,0,.24-.44.34.34,0,0,0-.11-.35.73.73,0,0,0-.39-.07l-4.35,0-.64,0a3.72,3.72,0,0,0-2.72.58l-3.57,2.92c-8.21,6.67-15.4,10.45-22.63,11.88a4.28,4.28,0,0,1-4.74-2.69,9.07,9.07,0,0,1-.28-1.24c0-.24-.08-.48-.14-.71a.58.58,0,0,0-.36-.36.84.84,0,0,0-.71,0l-.47.26c-.44.25-.9.5-1.33.77A21.78,21.78,0,0,1,37.31,58a6.26,6.26,0,0,1-3.9-.94,3.2,3.2,0,0,1-.91-3.33c.5-2,7.17-8.39,8.92-9.92A50,50,0,0,1,49,38.56a60.42,60.42,0,0,1,9-4.3l.79-.32c2.15-.88,5.1-2.09,6.84-.2a1.22,1.22,0,0,1,.4,1,4.94,4.94,0,0,1-.24.88,5.13,5.13,0,0,0-.21.74,6.28,6.28,0,0,0-.08.75,6.06,6.06,0,0,1-.1.86,5.58,5.58,0,0,1-1.47,2.5c-.82.89-1.74,1.78-2.64,2.64-3.09,3-6.29,6.09-6.85,10.25a1.76,1.76,0,0,0,.42,1.72c.66.52,1.85.18,2.72-.07l.38-.11a23.66,23.66,0,0,0,3.43-1.21c.87-.38,1.65-.75,2.36-1.13a73.84,73.84,0,0,0,14.5-9.94,4.65,4.65,0,0,0,1.23-1.44,4.62,4.62,0,0,0,.17-2.5,3.69,3.69,0,0,1,.72-3.33,9.32,9.32,0,0,1,4.6-2.51,2.88,2.88,0,0,1,3.16,1.65,2.49,2.49,0,0,1,0,1.54,19.88,19.88,0,0,1-1,2.18l-.28.57c-.24.49-.27.85-.1,1.09.47.65,2.38.4,3.4.27l.37,0a28,28,0,0,0,6.56-1.6l.06,0a3.61,3.61,0,0,1,1.5-.34A1.63,1.63,0,0,1,100,39.28a1.09,1.09,0,0,1-.35,1.25l-.29.24a4.8,4.8,0,0,1-.52.4,44.23,44.23,0,0,0-12,11.74,8.78,8.78,0,0,0-.84,1.6c-.09.2-.18.41-.27.61a1.23,1.23,0,0,0,.74,1.44A6,6,0,0,0,91,57a43.13,43.13,0,0,0,9.23-3.74,5.08,5.08,0,0,0,2.73-3.77c.46-2.06,2-3.93,3.28-5.58l.51-.64c2.52-3.2,5.32-6.48,9.37-8.33,1.31-.6,3.73-1.71,5.38-1.05a2.48,2.48,0,0,1,1.39,1.46c1,2.54-1.31,5.29-2.36,6.35a67.59,67.59,0,0,1-5.12,4.67c-2.58,2.12-7.64,6.31-8.24,6.85a.44.44,0,0,0-.18.43,1,1,0,0,0,.73.57c2.16.58,4.95-.73,7-1.68l.72-.33a76.14,76.14,0,0,0,11.35-6.76A69.58,69.58,0,0,0,136.94,37a19.86,19.86,0,0,1,4.94-3.8,1.52,1.52,0,0,1,1.4,0,1.46,1.46,0,0,1,.8,1.07,3.5,3.5,0,0,1-.28,2,25.48,25.48,0,0,1-2,3.53,9.66,9.66,0,0,0,.86-.56L143,39,147,36.65c1.62-1,3.29-1.91,4.55-2.59a4.91,4.91,0,0,1,1.13-.38l.4-.1a1.84,1.84,0,0,1,1.89,1,4.4,4.4,0,0,1,.42,2.5,9.38,9.38,0,0,1-1,3.39c-.42.77-.82,1.56-1.21,2.33a40.34,40.34,0,0,1-3.52,6,13.34,13.34,0,0,0-2.23,4.42,2.66,2.66,0,0,0,0,1.38.59.59,0,0,0,.35.41c.83.35,2.71-.46,3.31-.78a18.13,18.13,0,0,0,2.77-1.94l.83-.67c1.38-1.09,2.8-2.23,4.1-3.44,3.5-3.26,7-6.61,10.34-10l.21-.21,1.26-1.24c1.17-1.14,2.39-2.32,3.47-3.57.88-1,3.13-4.13,4.94-6.64,1.15-1.59,2.14-3,2.62-3.59.79-1,1.58-2.07,2.33-3.08l1.65-2.19c.5-.66,1.06-1.32,1.64-2a2.77,2.77,0,0,1,.65-.48l.22-.13a1.3,1.3,0,0,1,1.6.23,1.27,1.27,0,0,1,.37,1,3.07,3.07,0,0,1-.29,1c-.5.92-1,1.83-1.53,2.74l-.93,1.65a20.14,20.14,0,0,1-2.13,2.9l-.68.83c-1.27,1.58-2.93,3.67-4.55,5.78-1.46,1.91-3,3.87-4.24,5.93-.65,1-1.19,2.15-1.72,3.23-.45.92-.92,1.87-1.45,2.78-1.15,2-2.13,4-3,5.82-.12.27-.3.59-.51,1-.77,1.39-1.82,3.3-1.17,4.34a1.65,1.65,0,0,0,1.19.67,4.15,4.15,0,0,0,1.49-.13,16.19,16.19,0,0,0,6.23-3.24c1.65-1.3,3.26-2.72,4.81-4.1.84-.74,1.71-1.51,2.57-2.25,1.09-.94,2.19-1.9,3.25-2.84,1.43-1.26,2.9-2.56,4.39-3.8a21.56,21.56,0,0,0,4.64-5.32c.52-.86,1.1-1.71,1.66-2.53.38-.56.76-1.12,1.13-1.69.52-.8,1.06-1.67,1.54-2.58.35-.67,2.9-4.42,5.87-8.3,1.16-1.52,2.3-3.09,3.41-4.62.95-1.31,1.93-2.66,2.92-4,1.26-1.67,2.43-3.08,3.58-4.33A18.52,18.52,0,0,1,225,.09h0a1.57,1.57,0,0,1,1.55.28,2.71,2.71,0,0,1,.76,2.29c-.52,3.72-2.71,6.44-4.84,9.07-1.42,1.76-2.8,3.6-4.13,5.37l-.79,1.06a62.74,62.74,0,0,1-7.95,8.9c-1.54,1.41-3.15,2.79-4.7,4.14s-3.25,2.8-4.83,4.25a25.35,25.35,0,0,0-2.9,3.07,47.83,47.83,0,0,0-5.32,8l0,.06a53.78,53.78,0,0,1,18-12.67c1-.47,5.93-1.86,7.23-1.32l.41.15c.94.32,2,.69,1.89,3a.48.48,0,0,1,0,.16,1.5,1.5,0,0,1-.11.44,12.72,12.72,0,0,1-1.45,2.58c-.72,1-1.52,1.9-2.3,2.8l-.93,1.1a62.61,62.61,0,0,0-4.76,6.57c-.67,1.05-1.38,2.21-2.16,3.53l-.24.39c-.48.77-1.08,1.72-.63,2.51a3.51,3.51,0,0,0,2.2,1.19c.3.08.41.24.44.36s-.05.44-.31.69a3.32,3.32,0,0,1-3.35.8,4,4,0,0,1-2.13-1.54,3.47,3.47,0,0,1-.27-2.93,22.83,22.83,0,0,1,1.42-3.1A82.57,82.57,0,0,1,214.74,37c.59-.67.58-.95.51-1s-.42-.41-2.39,0c-1.48.52-3,1.16-3.17,1.26-.6.32-1.24.68-1.88,1.06A63.06,63.06,0,0,0,194.88,48.4c-4,4.12-6.74,6.88-10.91,10.5a4.26,4.26,0,0,1-1,.73,2.37,2.37,0,0,1-1.49.13,1.51,1.51,0,0,1-1.21-1.15,2,2,0,0,1,.52-1.35c.59-.82.93-1.35,1.26-1.87s.7-1.08,1.31-1.93l.77-1a23.63,23.63,0,0,0,2.44-3.72,2.21,2.21,0,0,0,.31-.6c-1.45,1.2-5.57,4.62-6.6,5.48a21.22,21.22,0,0,1-7.72,3.89,10,10,0,0,1-3.81.49,6.28,6.28,0,0,1-4-2.12,2.41,2.41,0,0,1-.56-2.47c.95-2.49,1.93-4.78,3-7,.14-.3.34-.63.55-1a7.19,7.19,0,0,0,1-2.25l-.44.34-.87.77-1.8,1.56c-.67.57-1.3,1.22-1.91,1.85l-.81.83a67.74,67.74,0,0,1-8.77,7.23A10.79,10.79,0,0,1,146.79,58a3.68,3.68,0,0,1-2.09-.72c-1.28-1.07-1-2.9-.66-3.89a29.15,29.15,0,0,1,3.21-6.52l.28-.46c1.72-2.88,3-5.12,4.12-7.29.19-.37.32-1.37,0-1.71-.15-.15-.38-.14-.71,0a36.06,36.06,0,0,0-6.41,4.36c-4.38,3.58-8.87,7.63-14.15,12.74-1.21,1.18-2.65,2.56-4.12,3.88l-.09.08c-.4.37-1,.92-1.61.67a2.32,2.32,0,0,1-1.19-1.39,1.11,1.11,0,0,1,.07-.94,4.5,4.5,0,0,1,.94-.92,5.67,5.67,0,0,0,.7-.63l1.7-1.95c2.26-2.58,4.59-5.24,6.72-7.95.51-.64.91-1.19,1.27-1.7,0-.06.15-.3.25-.52l.23-.49a12.66,12.66,0,0,0-2.39,1.75c-.34.29-.66.57-1,.79-2.17,1.65-4.46,3.27-6.81,4.8l-1,.64a41.62,41.62,0,0,1-4.46,2.69c-1,.48-2,.94-3,1.38s-1.78.8-2.66,1.23a14.81,14.81,0,0,1-7.87,1A5.21,5.21,0,0,1,104,56.2c-.25-.14-.51-.29-.77-.41a1,1,0,0,0-.9-.08l-.83.37c-.67.29-1.36.6-2,.93a46.8,46.8,0,0,1-5.36,2.23A15.68,15.68,0,0,1,88.78,60.1Zm-4.9-17.21.7,0,.63,0,4.35,0a1,1,0,0,1,.54.12.62.62,0,0,1,.23.65,1.43,1.43,0,0,1-.29.55c-.86,1.13-1.84,2.2-2.79,3.23a40,40,0,0,0-3.07,3.62,10.9,10.9,0,0,0-1.8,4A2.79,2.79,0,0,0,82.67,57,3.49,3.49,0,0,0,83.9,58.5a6.84,6.84,0,0,0,3.35,1.26A16.26,16.26,0,0,0,94,59a46.28,46.28,0,0,0,5.33-2.21c.67-.33,1.37-.64,2-.94l.83-.37a1.27,1.27,0,0,1,1.14.08c.27.13.53.28.79.42a4.91,4.91,0,0,0,2,.78,14.51,14.51,0,0,0,7.72-1c.88-.43,1.79-.84,2.67-1.24s2-.9,3-1.38A40.78,40.78,0,0,0,124,50.43l1-.64c2.34-1.53,4.62-3.14,6.79-4.79.29-.22.61-.5,1-.79a10.37,10.37,0,0,1,2.88-2h0l0,.14.08.12a6.15,6.15,0,0,0-.4.8,5.23,5.23,0,0,1-.27.56c-.36.52-.77,1.07-1.28,1.71-2.14,2.71-4.47,5.38-6.73,8l-1.7,1.95a5.93,5.93,0,0,1-.73.66,4.34,4.34,0,0,0-.88.85.84.84,0,0,0,0,.7,2,2,0,0,0,1,1.21c.44.18,1-.3,1.31-.61l.09-.08c1.46-1.32,2.9-2.7,4.11-3.87,5.28-5.12,9.78-9.17,14.17-12.75a36.3,36.3,0,0,1,6.46-4.39c.56-.28.88-.14,1,0a2.18,2.18,0,0,1,.06,2c-1.13,2.17-2.4,4.42-4.12,7.3l-.28.46a28.94,28.94,0,0,0-3.18,6.45c-.28.93-.58,2.62.57,3.59a3.41,3.41,0,0,0,1.93.65A10.54,10.54,0,0,0,154,55.46a67.39,67.39,0,0,0,8.73-7.21l.81-.82c.61-.63,1.24-1.28,1.93-1.86L167.25,44l.86-.76s.67-.62.85-.53l.09,0v.1a6,6,0,0,1-1.1,2.67c-.21.35-.4.67-.54,1-1.08,2.22-2.05,4.5-3,7a2.13,2.13,0,0,0,.5,2.17,6,6,0,0,0,3.83,2,9.7,9.7,0,0,0,3.69-.48,20.93,20.93,0,0,0,7.62-3.84c1.09-.92,5.71-4.74,6.85-5.69l.19-.15,0,.24a1.54,1.54,0,0,1-.36,1.09,23.69,23.69,0,0,1-2.46,3.75l-.77,1c-.61.84-.94,1.36-1.3,1.92s-.68,1.06-1.27,1.88a1.76,1.76,0,0,0-.47,1.14,1.25,1.25,0,0,0,1,.91,2.09,2.09,0,0,0,1.31-.12,4,4,0,0,0,1-.68c4.16-3.61,6.89-6.37,10.89-10.48a63.45,63.45,0,0,1,13-10.14c.65-.39,1.28-.75,1.89-1.07.21-.11,1.69-.75,3.23-1.29,1.59-.36,2.47-.33,2.72.09s0,.76-.54,1.38a82.22,82.22,0,0,0-10,14.19,22.49,22.49,0,0,0-1.4,3.06,3.15,3.15,0,0,0,.25,2.69,2.74,2.74,0,0,0,1.61,1.31,3.71,3.71,0,0,0,3.42-.64c.2-.19.25-.33.23-.4s-.15-.13-.23-.15a3.73,3.73,0,0,1-2.38-1.33c-.53-.94.12-2,.64-2.8l.23-.38c.78-1.33,1.49-2.49,2.16-3.54a62.82,62.82,0,0,1,4.78-6.6l.94-1.1c.77-.9,1.57-1.84,2.29-2.79a12.41,12.41,0,0,0,1.42-2.52,1.15,1.15,0,0,0,.09-.36v0l0-.1c.1-2.09-.81-2.41-1.69-2.72l-.42-.16c-1.13-.46-5.88.81-7,1.32a53.87,53.87,0,0,0-18.66,13.45l-.83.83.6-1c.24-.4.43-.74.59-1.06a48.15,48.15,0,0,1,5.35-8,26.16,26.16,0,0,1,2.93-3.11c1.58-1.45,3.24-2.88,4.83-4.26s3.16-2.73,4.7-4.13A62.42,62.42,0,0,0,217.32,18l.79-1.06c1.34-1.78,2.72-3.62,4.14-5.38,2.1-2.6,4.26-5.29,4.78-8.93a2.44,2.44,0,0,0-.66-2,1.29,1.29,0,0,0-1.28-.22h0a18.24,18.24,0,0,0-8.27,5.1c-1.15,1.24-2.31,2.65-3.56,4.31-1,1.31-2,2.67-2.92,4-1.1,1.52-2.25,3.1-3.41,4.62-3,3.87-5.49,7.6-5.84,8.26-.48.92-1,1.79-1.55,2.6-.37.57-.75,1.13-1.13,1.69-.56.82-1.13,1.67-1.65,2.52a21.88,21.88,0,0,1-4.7,5.39c-1.49,1.24-3,2.54-4.38,3.8-1.06.94-2.16,1.9-3.25,2.84-.86.74-1.73,1.51-2.57,2.25-1.56,1.38-3.16,2.8-4.82,4.11a16.48,16.48,0,0,1-6.34,3.29,4.44,4.44,0,0,1-1.6.14,1.94,1.94,0,0,1-1.39-.8c-.75-1.19.35-3.18,1.16-4.64.2-.37.38-.69.5-.95.83-1.79,1.82-3.86,3-5.84.52-.9,1-1.85,1.44-2.76.53-1.08,1.08-2.2,1.73-3.25,1.28-2.07,2.79-4,4.25-5.95,1.62-2.12,3.29-4.21,4.55-5.79l.68-.84a19.89,19.89,0,0,0,2.1-2.85l.93-1.65c.52-.91,1-1.82,1.53-2.74a2.81,2.81,0,0,0,.26-.9,1,1,0,0,0-1.54-1l-.23.14a2.51,2.51,0,0,0-.58.42c-.58.63-1.13,1.29-1.63,1.94L184.2,20c-.76,1-1.55,2.07-2.34,3.09-.48.62-1.47,2-2.62,3.58-1.91,2.65-4.07,5.65-5,6.66-1.09,1.25-2.31,2.44-3.49,3.58l-1.26,1.23-.21.2c-3.36,3.35-6.84,6.71-10.35,10-1.31,1.22-2.74,2.35-4.12,3.45l-.83.66a18.22,18.22,0,0,1-2.81,2s-2.42,1.27-3.55.79a.87.87,0,0,1-.52-.59,3,3,0,0,1,0-1.53,13.64,13.64,0,0,1,2.28-4.51,40.07,40.07,0,0,0,3.5-6c.39-.77.79-1.56,1.21-2.33a9.13,9.13,0,0,0,1-3.29,4.13,4.13,0,0,0-.4-2.33,1.56,1.56,0,0,0-1.55-.81l-.41.11a4.65,4.65,0,0,0-1.07.36c-1.26.68-2.92,1.59-4.54,2.58-1.33.82-2.57,1.58-3.91,2.39l-.41.28a4.59,4.59,0,0,1-1.4.78l-.36.06.22-.29a24.4,24.4,0,0,0,2.31-3.88,3.22,3.22,0,0,0,.25-1.85,1.17,1.17,0,0,0-.64-.86,1.23,1.23,0,0,0-1.13,0,19.53,19.53,0,0,0-4.87,3.75,70,70,0,0,1-10.23,8.44,76.41,76.41,0,0,1-11.39,6.78l-.72.33c-2.07,1-4.91,2.3-7.18,1.7a1.3,1.3,0,0,1-.94-.79.7.7,0,0,1,.26-.71c.63-.58,5.93-5,8.25-6.86a67.2,67.2,0,0,0,5.1-4.65c1-1,3.26-3.66,2.3-6a2.2,2.2,0,0,0-1.22-1.3c-1.53-.61-3.89.47-5.15,1-4,1.83-6.76,5.08-9.26,8.25l-.51.64c-1.3,1.63-2.78,3.47-3.22,5.46a5.4,5.4,0,0,1-2.87,4,43.46,43.46,0,0,1-9.3,3.76,6.26,6.26,0,0,1-4.74-.48A1.51,1.51,0,0,1,85.44,55l.27-.6a9,9,0,0,1,.87-1.66,44.51,44.51,0,0,1,12.1-11.82,4.63,4.63,0,0,0,.49-.38l.3-.24a.81.81,0,0,0,.26-.93,1.33,1.33,0,0,0-1.11-.94,3.7,3.7,0,0,0-1.38.32l-.06,0a28.31,28.31,0,0,1-6.63,1.62l-.37,0c-1.23.17-3.1.41-3.67-.38a1.33,1.33,0,0,1,.07-1.39l.28-.57a19.49,19.49,0,0,0,1-2.14,2.24,2.24,0,0,0,0-1.35A2.6,2.6,0,0,0,85,33.14a9,9,0,0,0-4.46,2.43c-.89.93-.77,2-.64,3.1a4.84,4.84,0,0,1-.2,2.65,4.86,4.86,0,0,1-1.3,1.54,74.05,74.05,0,0,1-14.56,10c-.72.38-1.5.75-2.38,1.14A24.13,24.13,0,0,1,58,55.19l-.37.1c-.93.27-2.2.63-3,0a2,2,0,0,1-.53-2c.57-4.25,3.8-7.39,6.93-10.42.93-.9,1.81-1.75,2.62-2.63a5.12,5.12,0,0,0,1.4-2.37,5.69,5.69,0,0,0,.09-.82,6.66,6.66,0,0,1,.08-.78,5.51,5.51,0,0,1,.22-.78,4.65,4.65,0,0,0,.23-.83.92.92,0,0,0-.33-.78c-1.6-1.75-4.44-.58-6.51.27l-.8.32a60.05,60.05,0,0,0-8.92,4.28A49.7,49.7,0,0,0,41.6,44c-1.67,1.46-8.35,7.86-8.83,9.78a2.92,2.92,0,0,0,.81,3,5.88,5.88,0,0,0,3.72.88,21.49,21.49,0,0,0,10.17-3.4c.44-.28.9-.54,1.35-.78l.47-.26a1.12,1.12,0,0,1,1,0,.85.85,0,0,1,.52.56c.05.24.1.48.14.73a8.86,8.86,0,0,0,.27,1.2,4,4,0,0,0,4.41,2.5c7.18-1.42,14.33-5.17,22.5-11.81l3.56-2.92A3.24,3.24,0,0,1,83.88,42.89ZM38.19,54.82l-.64,0a1.6,1.6,0,0,1-.83-.23,1.1,1.1,0,0,1-.21-1.39,6.63,6.63,0,0,1,1.35-1.57c.19-.18.37-.35.54-.53.71-.74,1.52-1.58,2.32-2.39a58.51,58.51,0,0,1,4.84-4.45,45.49,45.49,0,0,1,10-6c.95-.42,2.07-.92,3.24-1.36.2-.08.41-.17.62-.27a4.22,4.22,0,0,1,1.58-.5c.46,0,.74.08.85.31s0,.74-.56,1.42l-1,1.25c-3,3.88-5.93,7.54-9.87,10.4h0C45.6,53,41.48,54.82,38.19,54.82ZM61.12,36.43H61a4,4,0,0,0-1.47.48c-.21.1-.43.2-.64.28-1.16.44-2.28.93-3.22,1.35a45.13,45.13,0,0,0-9.94,5.92,58.1,58.1,0,0,0-4.82,4.42c-.8.8-1.6,1.64-2.32,2.39-.17.17-.36.35-.55.54a6.43,6.43,0,0,0-1.3,1.5.81.81,0,0,0,.13,1,1.37,1.37,0,0,0,.68.18c3.33.24,7.6-1.51,12.71-5.22h0c3.91-2.84,6.78-6.48,9.81-10.34l1-1.24c.55-.7.59-1,.53-1.11S61.39,36.43,61.12,36.43ZM106.41,49.6v-.26a7.05,7.05,0,0,1,1-2.64h0a43.72,43.72,0,0,1,8.15-8.51A5.27,5.27,0,0,1,117.87,37a1.21,1.21,0,0,1,1.09.21.75.75,0,0,1,.06,1l-.1.15a3.33,3.33,0,0,1-.52.68c-.91.85-1.85,1.82-2.76,2.76-1.07,1.11-2.17,2.25-3.27,3.23a38.54,38.54,0,0,1-5.74,4.44Zm1.21-2.74a7.45,7.45,0,0,0-.88,2.22,40.35,40.35,0,0,0,5.44-4.26c1.09-1,2.19-2.11,3.26-3.21.91-.94,1.85-1.91,2.77-2.77a3.13,3.13,0,0,0,.47-.62l.1-.16a.48.48,0,0,0,0-.67.94.94,0,0,0-.84-.15,5,5,0,0,0-2.21,1.17,43.49,43.49,0,0,0-8.1,8.45ZM82,38.51l-.17,0a.4.4,0,0,1-.31-.25c-.26-.66.43-1.49.92-1.85s2.49-1.47,2.95-.9-.33,1.11-1.07,1.8l-.3.28h0A3.78,3.78,0,0,1,82,38.51Zm3.18-3.1a6.14,6.14,0,0,0-2.54,1.15c-.48.37-1.09,1.15-.87,1.67,0,0,0,.06.12.07a3.48,3.48,0,0,0,2.08-1L84.3,37c.57-.54,1.34-1.28,1.11-1.55A.28.28,0,0,0,85.19,35.41Zm115.4-3.74-.25-.15h0L203.09,27c.36-.64,2.17-3.06,5.36-7.17l.28-.36c2-2.62,4.09-5.43,6.24-8.24s4-5.05,6.83-6.52a.69.69,0,0,1,.71,0,.74.74,0,0,1,.33.65,1.42,1.42,0,0,1-.22.59h0a149.92,149.92,0,0,1-9.52,12.5c-2.23,2.5-9.5,10-10.81,11.39-.17.18-.37.36-.58.55a6.09,6.09,0,0,0-1.11,1.18ZM222.12,5a.41.41,0,0,0-.19,0c-2.77,1.44-4.69,3.76-6.73,6.44s-4.26,5.62-6.23,8.23l-.28.36c-3.19,4.1-5,6.51-5.34,7.14l-2,3.2.13-.12c.21-.19.4-.36.57-.54,1.31-1.35,8.58-8.88,10.8-11.38a149.59,149.59,0,0,0,9.49-12.45h0a1.19,1.19,0,0,0,.18-.47.45.45,0,0,0-.21-.39A.41.41,0,0,0,222.12,5Z"/><path class="cls-1" d="M75.17,8.66a12,12,0,0,0-7.5-5.34A73.18,73.18,0,0,0,59,1.66a53.49,53.49,0,0,0-10.81-.33A64.49,64.49,0,0,0,32.83,4.42c-.77.25-1.55.5-2.29.82a51.73,51.73,0,0,0-5.25,2.59A25.56,25.56,0,0,0,21.94,9.7c-.77.53-1.48,1.2-.61,2a1.89,1.89,0,0,0,2.64.05,18.37,18.37,0,0,1,3.36-2.34,56.76,56.76,0,0,1,7.61-2.83q1.86-.59,3.75-1.1a7.25,7.25,0,0,1,1.46-.19.73.73,0,0,1,.75.36.46.46,0,0,1,0,.43C38.09,9.47,35,12.92,32.25,16.31c-2.39,2.92-4.77,5.91-7,8.88l.12-.17-4.59,6.06a2,2,0,0,0,.23-.17c.17-.16.32-.32.48-.49A13.76,13.76,0,0,1,20.05,32l.69-.91a3.74,3.74,0,0,1-1.57.56c-3.37.54-3.12,1-2.15,4.21l.54-.56c-1.05,1.5-2.34,2.86-3.54,4.28-1.58,1.88-3.2,3.72-4.81,5.58-3,3.48-6,7-8.82,10.56a1.41,1.41,0,0,0-.18.4A.88.88,0,0,0,.33,57c.49.72,3,1.22,3.59.66a13.29,13.29,0,0,0,1-1c5.46-6.42,10-12.81,15.46-19.24a9.28,9.28,0,0,1,6.08-3.55l.69-.14C32.67,32.62,38.34,31.9,43.92,31a69.69,69.69,0,0,0,18.44-5.56,29.33,29.33,0,0,0,8.16-5,23.5,23.5,0,0,0,5.09-7.14A4.75,4.75,0,0,0,75.17,8.66ZM67.7,18.31c-2,2.09-8.57,5.34-9.51,5.71A83.77,83.77,0,0,1,42.66,28.1c-5.6,1.05-11.21,2.07-16.87,2.84a.57.57,0,0,1-.44-.16.64.64,0,0,1,.08-.81c1.35-1.84,2.27-3.17,3.44-4.78,2.54-3.58,5.11-6.81,7.83-9.94,2.12-2.43,4.19-4.9,6.25-7.37.88-1.05,1.68-2.16,2.52-3.24a1.25,1.25,0,0,1,.81-.47,28.41,28.41,0,0,1,8.36-.32A63.31,63.31,0,0,1,64.91,5.64c2.43.71,4.81,1.43,6.32,3.42A3.13,3.13,0,0,1,72,11C71.84,13.55,69.45,16.48,67.7,18.31Z"/><path class="cls-1" d="M3,58l-.42,0A3.74,3.74,0,0,1,.2,57a1,1,0,0,1-.13-1L.1,56a1.19,1.19,0,0,1,.17-.36c2.53-3.2,5.34-6.56,8.82-10.57l.86-1c1.3-1.5,2.65-3,3.95-4.59L15,38.25c.64-.73,1.29-1.48,1.89-2.26a.13.13,0,0,1,0-.17l-.06-.2c-.49-1.61-.77-2.5-.37-3.11s1.23-.78,2.72-1A3.57,3.57,0,0,0,20.63,31l4.58-6h0c2.08-2.72,4.4-5.66,6.92-8.73,1.32-1.61,2.73-3.26,4.09-4.86C37.73,9.59,39.3,7.75,40.76,6a.34.34,0,0,0,0-.29.59.59,0,0,0-.6-.27,7.12,7.12,0,0,0-1.43.18c-1.31.35-2.57.72-3.75,1.09A56.47,56.47,0,0,0,27.39,9.5a18,18,0,0,0-3.32,2.32,2,2,0,0,1-2.85-.05,1.08,1.08,0,0,1-.44-.87c0-.53.56-1,1.07-1.31a25.81,25.81,0,0,1,3.37-1.89,52,52,0,0,1,5.26-2.59c.72-.31,1.47-.55,2.3-.82a64.34,64.34,0,0,1,15.37-3.1A54,54,0,0,1,59,1.52,72.71,72.71,0,0,1,67.7,3.18a12.14,12.14,0,0,1,7.6,5.4,4.86,4.86,0,0,1,.44,4.79,23.56,23.56,0,0,1-5.12,7.18,29.47,29.47,0,0,1-8.2,5.05,70.35,70.35,0,0,1-18.48,5.58l-4.44.66c-4.06.59-8.26,1.21-12.32,2l-.68.14a9.16,9.16,0,0,0-6,3.5c-2.71,3.19-5.24,6.43-7.68,9.56s-5,6.45-7.78,9.68a8,8,0,0,1-.71.7l-.3.28A1.6,1.6,0,0,1,3,58ZM17.44,35.2l.24.18a36.83,36.83,0,0,1-2.48,3.06c-.36.41-.71.82-1.06,1.23-1.3,1.54-2.65,3.09-3.95,4.59l-.86,1C5.84,49.25,3,52.61.51,55.8a1,1,0,0,0-.13.28l0,.08a.74.74,0,0,0,.1.72,3.49,3.49,0,0,0,2.12.81,1.78,1.78,0,0,0,1.24-.18l.31-.28a7.88,7.88,0,0,0,.68-.67c2.74-3.23,5.3-6.5,7.77-9.67s5-6.37,7.69-9.57a9.42,9.42,0,0,1,6.17-3.6l.69-.14c4.07-.82,8.27-1.43,12.34-2l4.44-.66a70.07,70.07,0,0,0,18.4-5.55,29.24,29.24,0,0,0,8.12-5,23.28,23.28,0,0,0,5.06-7.09A4.6,4.6,0,0,0,75,8.73h0a11.85,11.85,0,0,0-7.41-5.27A72.48,72.48,0,0,0,59,1.8a53.66,53.66,0,0,0-10.78-.33,64,64,0,0,0-15.3,3.08c-.83.27-1.57.51-2.28.81a51.73,51.73,0,0,0-5.23,2.58A25.63,25.63,0,0,0,22,9.82c-.43.3-.92.69-.95,1.1a.81.81,0,0,0,.35.64,1.73,1.73,0,0,0,2.43.06,18.7,18.7,0,0,1,3.39-2.36A56.55,56.55,0,0,1,34.89,6.4c1.18-.38,2.44-.75,3.76-1.1a7.39,7.39,0,0,1,1.49-.19.87.87,0,0,1,.9.45.59.59,0,0,1,0,.57c-1.47,1.8-3,3.64-4.54,5.41-1.36,1.6-2.77,3.25-4.09,4.86-2.56,3.13-4.93,6.11-7,8.88h0l-3.9,5.15.13.1a13.89,13.89,0,0,1-1.4,1.58l-.23-.19.13-.17h0l.17-.22a5,5,0,0,1-1,.26c-1.59.26-2.25.49-2.51.89s-.07,1.34.4,2.87v0Zm8.31-4.12a.72.72,0,0,1-.53-.23.76.76,0,0,1,.08-1c.77-1,1.4-1.93,2-2.79l1.43-2c2.44-3.44,5-6.7,7.84-10,2-2.32,4-4.62,6.24-7.37C43.44,7,44,6.25,44.61,5.49l.73-1a1.39,1.39,0,0,1,.9-.53,28.72,28.72,0,0,1,8.41-.32A62.41,62.41,0,0,1,64.95,5.5c2.38.69,4.84,1.4,6.4,3.48a3.31,3.31,0,0,1,.76,2c-.12,2.5-2.4,5.39-4.3,7.38l-.11-.1.11.1c-2,2.06-8.5,5.33-9.56,5.75a84.32,84.32,0,0,1-15.56,4.08c-5.06,1-11,2-16.88,2.84Zm26-27.28a30.23,30.23,0,0,0-5.44.49,1.1,1.1,0,0,0-.71.41l-.72.95c-.58.76-1.17,1.55-1.8,2.3-2.29,2.75-4.23,5.06-6.25,7.37C34,18.58,31.42,21.83,29,25.26l-1.42,2c-.62.86-1.25,1.75-2,2.8-.19.26-.21.46-.07.65a.44.44,0,0,0,.3.1c5.91-.8,11.8-1.88,16.86-2.84a84,84,0,0,0,15.5-4.06c1.06-.42,7.52-3.65,9.45-5.68h0c1.86-2,3.94-4.78,4-7.19a3,3,0,0,0-.7-1.87c-1.5-2-3.91-2.69-6.24-3.37A60,60,0,0,0,54.61,4,25.32,25.32,0,0,0,51.73,3.8Z"/></g></g></svg>