<?xml version="1.0" encoding="utf-8"?>
<!-- Generator: Adobe Illustrator 21.1.0, SVG Export Plug-In . SVG Version: 6.00 Build 0)  -->
<svg version="1.1" id="Layer_1" xmlns="http://www.w3.org/2000/svg" xmlns:xlink="http://www.w3.org/1999/xlink" x="0px" y="0px"
	 viewBox="0 0 348.1 60.1" style="enable-background:new 0 0 348.1 60.1;" xml:space="preserve">
<style type="text/css">
	.st0{fill:#FFFFFF;}
</style>
<title>Asset 3</title>
<g id="Layer_2">
	<g id="Layer_1-2">
		<path class="st0" d="M255.7,18.2c-0.5-0.9-1.4-1.4-2.4-1.2c-1.3,0.1-2.5,0.2-3.7,0.5c-1,0.1-2,0.2-3,0.3c-4.3,0.3-4.3,0.2-7.1,0.5
			c0.2-0.3-12.6,1-13.9,1.1c-1.8,0.2-3.6,0.3-5.5,0.4c-2.9,0.2-5.7,0.5-8.6,0.6c-0.5,0-8.1,1-8.1,1c-5.1,0.3-13,1.3-17.7,1.6
			c-0.9,0.1-1.8,0-2.7,0.1c-0.7,0.1-1.1,0.8-1,1.5c0,0,0,0,0,0c0.5,1.2,0.6,1.3,2.5,1.2c3.2-0.2,6.9-0.7,10.1-0.9
			c1.7-0.1,10.8-0.6,11.5-1.1c5.2-0.3,13-1.1,18.3-1.5c0.7,0,1.5-0.1,2.2-0.2c0,0,11.7-1,14-1.1c0.7,0,1.4-0.1,2.1-0.1l6.9-0.2l0,0
			h0.3h1h0.6c0.4,0,0.8,0.1,1.1,0.3c0.8,0.5,2,0.4,2.6-0.4C255.8,20,256,19,255.7,18.2z"/>
		<path class="st0" d="M346.2,43.4c-0.8,0.4-1.5,0.9-2.1,1.6c-0.9,1.3-1.9,2.5-3.1,3.5c-1.3,0.9-2.8,1.7-4.2,2.4
			c-3,1.5-6.4,2.2-9.8,2c-0.8,0-1.6-0.3-2.2-0.9c-0.4-0.6-0.6-1.4-0.5-2.1c0.2-2.8,2.9-8.6,4.6-10.9c1.8-2.2,3.8-4.3,6-6.3
			c3.3-3.2,6.3-6.6,9-10.3c1.4-1.8,2.4-3.8,2.9-6c0.2-0.9,0-2.1-1-2.3c-0.2,0-0.4,0-0.6,0c-3.4,0.6-6.5,2.6-8.4,5.5
			c-2.4,3.5-4.3,7.5-6.4,11.2c-1.3,2.3-2.9,4.5-4.6,6.6c-0.2-0.3-0.5-0.5-0.8-0.6c-0.6-0.2-1.2-0.2-1.9-0.2
			c-6.8,0.4-13.5,1.6-19.9,3.8c-1.2,0.4-2.4,0.8-3.6,1.2c-1,0.2-2.1,0.6-2.7-0.4c-0.5-0.9-1.1-1.7-1.7-2.5c-0.9-1.1-2.3-1.6-3.7-1.4
			c-2.6,0.4-5.1,0.9-7.7,1.3c-3.6,0.5-7.1,1.3-10.6,2.3c-1.3,0.4-2.7,0.6-4,0.9c-0.6,0.1-1.2-0.3-1.3-0.9c-0.3-0.7-0.6-1.4-1.1-2.1
			c-0.9-1.2-1.9-2.2-3.2-3c-1.3-0.6-2.8-0.8-4.2-0.4c-2.7,0.4-5.4,1.3-7.7,2.8c-3.1,2.2-6,4.8-8.6,7.6c-0.7,0.7-1.3,1.5-1.9,2.4
			c-1.1,1.7-1.6,3.7-1.4,5.7c0.1,1,0.7,1.9,1.6,2.5c1.2,0.8,2.7,1.2,4.1,1.3c8-0.7,14.7-5.2,19.4-11.6c0.7-0.8,1.6-1.3,2.7-1.4
			c2.8-0.4,5.5-1,8.3-1.7c-0.1,0.1-0.1,0.1-0.2,0.2l-0.6,0.5c-0.5,0.4-0.9,0.7-1.3,1.1c-1.8,1.8-3.9,4-4.8,6.3
			c-0.6,1.6-0.3,3.5,0.8,4.8c1.1,1.4,2.7,2.2,4.4,2.3c2.8,0.2,5.5-0.4,8-1.6c2.8-1.3,5.4-2.9,7.8-4.7c1.5-1.2,2.9-2.5,4.2-3.8
			c1.4-1.4,3.1-2.5,4.9-3.3l1.8-0.7c1.6-0.6,3.2-1.1,4.8-1.6c0.1,0,0.3,0,0.4,0c0.9,0.2,0.1,0.5,0,0.7c-0.6,0.7-1.2,1.3-1.7,2
			c-1.1,1.2-2.2,2.5-3.2,3.8c-0.8,1.3-1.7,2.8-1.5,4.3c0.3,2.7,4,4.9,6.6,4.8c3.5-0.1,6.6-2.6,9-4.7c2.3-1.9,4.4-4,6.5-6.1
			c-0.3,1.1-0.7,2.5-0.8,2.6c-0.3,1.8,0.5,3.7,2,4.7c1.2,0.7,2.5,1.2,3.9,1.2c2.8,0.2,5.6-0.3,8.2-1.2c2.5-0.7,4.9-1.8,7.2-3.1
			c2.3-1.3,4.1-3.3,5.3-5.7C348.2,44.8,347.4,44,346.2,43.4z M333.2,30.2c0.6-1.1,1.2-2.2,1.9-3.3s1.4-2.2,2.2-3.3
			c0.6-0.8,1.2-1.5,1.9-2.2c0.8-0.9,3.6-4.1,5-4.4c0.1,0.4-1.4,2.8-1.9,3.4c-1,1.3-2,2.6-3.1,3.9c-1.5,1.8-2.8,3.6-4.4,5.2
			c-0.8,1-1.6,1.9-2.6,2.7c-0.2,0.2-0.5,1.2-0.8,1.2C331.9,32.4,332.6,31.3,333.2,30.2L333.2,30.2z M262.7,44.8
			c-0.1,0.2-0.2,0.4-0.4,0.6c-1.7,1.5-3.3,3-5.1,4.4c-3.2,2.6-7,4.9-11.4,4.7c-0.3,0-0.6,0-0.9-0.1c-0.3,0-0.7-0.1-1-0.2
			c-1.4-0.6-0.9-2.3-0.3-3.3c1.4-2.4,3.1-4.6,5.2-6.5c2.1-1.8,4.3-3.9,6.9-4.9c0.4-0.2,0.9-0.1,1.2,0.3c0,0,0,0,0,0.1
			c0.1,0.3,0.1,0.7,0.1,1.1c0.1,0.5,0.4,1,0.8,1.4c0.6,0.6,1.4,1,2.3,1.2C260.8,43.7,263,43.9,262.7,44.8z M264.7,41.4
			c-0.2,0.5-1.7,0.4-3.2-0.2c-1.6-0.6-2.7-1.5-2.4-2s1.7-0.4,3.2,0.2C263.8,40,264.9,40.8,264.7,41.4z M290.9,40.6
			c1.4,0.2,2.4,0.7,2.4,1.1s-1.2,0.7-2.6,0.5s-2.4-0.7-2.4-1.1S289.5,40.4,290.9,40.6z M288.3,50.1c-1.9,1.2-3.7,2.4-5.6,3.5
			c-1.4,0.8-2.9,1.4-4.5,1.6c-0.8,0.1-1.7,0.2-2.5,0.2c-0.7,0-1.3-0.2-1.9-0.5c-0.4-0.3-0.8-0.8-0.9-1.3c-0.4-1.3-0.2-2.7,0.6-3.7
			c0.9-1.2,1.9-2.4,3.1-3.4c1.5-1.5,3.2-2.8,5-3.8c1.1-0.7,2.4-1.1,3.6-1.4c0.7-0.1,0.7,2,2.2,2.9c2.5,0.9,6.2,0.1,7.4-0.2
			C294.8,44.4,289.9,49,288.3,50.1L288.3,50.1z M323.3,40.3c-4.8,5.4-7.8,10.1-14.5,13.7c-1.4,0.8-3.2,0.7-4.5-0.3
			c-1.9-1.4-0.3-3.5,0.8-4.9c2.2-2.9,4.3-4.2,7.6-6.1c3-1.7,6.6-3.2,10.3-3.1c0.3,0,0.7,0,1,0L323.3,40.3z"/>
		<path class="st0" d="M275.6,58.3c-0.4,0-0.8,0-1.2-0.1c-1.8-0.1-3.4-1-4.5-2.4c-1.1-1.4-1.5-3.2-0.8-4.9c1-2.3,3-4.5,4.9-6.4
			c0.4-0.4,0.9-0.8,1.3-1.2l0.2-0.1l0.1-0.1c-2.5,0.7-5.1,1.2-7.7,1.6c-1,0.1-1.9,0.6-2.6,1.3c-5.1,6.9-12,11-19.5,11.7
			c-1.5,0-3-0.5-4.2-1.3c-0.9-0.5-1.5-1.5-1.6-2.6c-0.2-2,0.3-4.1,1.4-5.8c0.6-0.8,1.2-1.6,1.9-2.4c2.6-2.8,5.5-5.4,8.6-7.6
			c2.3-1.5,5-2.5,7.7-2.8c1.4-0.4,2.9-0.2,4.2,0.5c1.2,0.8,2.3,1.8,3.2,3c0.5,0.6,0.9,1.3,1.1,2.1c0.1,0.3,0.4,1,1.2,0.8l1.3-0.3
			c0.9-0.2,1.8-0.4,2.7-0.6c3.5-1,7-1.8,10.6-2.3c1.2-0.2,2.4-0.4,3.6-0.6s2.7-0.5,4-0.7c1.4-0.2,2.9,0.3,3.8,1.4
			c0.4,0.5,0.8,1.1,1.2,1.7c0.2,0.3,0.3,0.5,0.5,0.8c0.6,0.9,1.5,0.6,2.5,0.3h0.1c1-0.2,1.9-0.6,2.8-0.9l0.8-0.3
			c6.4-2.2,13.1-3.5,19.9-3.8c0.7-0.1,1.3,0,1.9,0.2c0.3,0.1,0.6,0.3,0.8,0.5c1.7-2,3.2-4.1,4.5-6.4c0.5-1,1.1-2,1.6-3
			c1.4-2.8,3-5.6,4.8-8.3c1.6-2.4,4.8-5.1,8.5-5.6c0.2,0,0.4,0,0.6,0c1,0.2,1.3,1.4,1.1,2.5c-0.5,2.2-1.6,4.2-3,6
			c-2.7,3.7-5.7,7.1-9,10.3l-1,1c-1.8,1.6-3.4,3.4-4.9,5.3c-1.7,2.2-4.4,7.9-4.6,10.8c-0.1,0.7,0.1,1.4,0.5,2
			c0.6,0.5,1.4,0.8,2.1,0.8c3.3,0.2,6.7-0.5,9.7-2c1.5-0.7,2.9-1.5,4.2-2.4c1.2-1,2.2-2.1,3.1-3.4c0.4-0.5,0.9-0.9,1.4-1.1
			c0.2-0.2,0.5-0.3,0.7-0.5h0.1h0.1c0.7,0.2,1.4,0.7,1.7,1.4c0.2,0.4,0.2,0.8,0,1.1c-1.2,2.4-3.1,4.4-5.4,5.7
			c-2.3,1.3-4.7,2.4-7.2,3.1c-2.7,1-5.5,1.4-8.4,1.3c-1.4-0.1-2.8-0.5-4-1.3c-1.5-1.1-2.3-3-2-4.9c0-0.1,0.1-0.3,0.2-0.9
			c0.1-0.4,0.2-0.8,0.4-1.2c-1.9,1.8-3.9,3.8-6.1,5.7s-5.4,4.7-9.1,4.8c-1.5,0-3-0.5-4.2-1.4c-1.3-0.8-2.2-2.1-2.5-3.5
			c-0.2-1.7,0.8-3.2,1.6-4.4c0.6-0.9,1.3-1.8,2.1-2.6c0.4-0.4,0.8-0.8,1.1-1.2c0.5-0.7,1.1-1.3,1.7-2c0.1-0.1,0.1-0.1,0.2-0.2
			c0.1-0.1,0.2-0.1,0.2-0.2l0,0c-0.1,0-0.2-0.1-0.3-0.1c-0.1,0-0.2,0-0.3,0c-1.6,0.5-3.2,1-4.8,1.6l-1.8,0.7
			c-1.8,0.8-3.5,1.9-4.9,3.3l-1.1,1c-1,1-2,1.9-3.1,2.8c-2.4,1.8-5.1,3.4-7.8,4.7C280.3,57.6,278,58.3,275.6,58.3z M276.1,43
			C276.1,43,276.1,43,276.1,43l-0.2,0.2l-0.4,0.3l-0.2,0.1c-0.5,0.4-0.9,0.8-1.3,1.2c-1.8,1.8-3.9,4-4.8,6.3
			c-0.6,1.6-0.3,3.4,0.8,4.6c1.1,1.3,2.6,2.2,4.3,2.3c2.7,0.2,5.5-0.3,8-1.6c2.8-1.3,5.4-2.9,7.8-4.7c1.1-0.8,2.1-1.7,3.1-2.7l1.1-1
			c1.4-1.4,3.1-2.6,5-3.3l1.8-0.7c1.6-0.6,3.2-1.1,4.8-1.6c0.2-0.1,0.3-0.1,0.5,0c0.2,0,0.5,0.1,0.5,0.3s-0.2,0.3-0.3,0.5l-0.2,0.1
			c-0.6,0.6-1.2,1.3-1.7,2c-0.3,0.4-0.7,0.8-1.1,1.2c-0.8,0.8-1.5,1.6-2.1,2.5c-0.8,1.2-1.7,2.7-1.5,4.2c0.2,2.5,3.7,4.7,6.3,4.7
			h0.1c3.3-0.1,6.1-2.3,9-4.7c2.3-2,4.5-4.2,6.5-6.1l0.4-0.4l-0.1,0.5c-0.2,0.6-0.4,1.3-0.5,1.8s-0.2,0.8-0.2,0.8
			c-0.2,1.8,0.5,3.6,2,4.6c1.1,0.7,2.4,1.1,3.7,1.2c2.8,0.2,5.6-0.3,8.2-1.2c2.5-0.7,4.9-1.8,7.2-3.1c2.3-1.3,4.1-3.3,5.3-5.6
			c0.1-0.3,0.1-0.6,0-0.9c-0.3-0.6-0.9-1-1.5-1.2c-0.2,0.2-0.4,0.3-0.7,0.4c-0.5,0.3-1,0.6-1.3,1c-0.9,1.3-1.9,2.5-3.1,3.5
			c-1.4,0.9-2.8,1.7-4.2,2.4c-3,1.5-6.4,2.2-9.8,2c-0.9,0-1.7-0.3-2.3-0.9c-0.5-0.6-0.7-1.4-0.5-2.2c0.2-2.9,3-8.7,4.6-10.9
			c1.5-1.9,3.2-3.7,4.9-5.3l1-1c3.3-3.2,6.3-6.6,9-10.3c1.4-1.7,2.4-3.7,2.9-5.9c0.1-0.8,0-2-0.9-2.2c-0.2,0-0.4,0-0.5,0
			c-3.7,0.4-6.7,3.1-8.3,5.4c-1.7,2.7-3.3,5.4-4.8,8.2c-0.5,1-1.1,2-1.6,3c-1.3,2.3-2.8,4.5-4.5,6.5l-0.1,0.1l-0.1-0.2
			c-0.2-0.3-0.5-0.5-0.8-0.6c-0.6-0.2-1.2-0.2-1.8-0.2c-6.8,0.4-13.4,1.6-19.8,3.8l-0.8,0.3c-0.9,0.3-1.9,0.6-2.8,0.9h-0.1
			c-0.9,0.2-2.1,0.6-2.8-0.5c-0.2-0.3-0.3-0.5-0.5-0.8c-0.3-0.6-0.7-1.1-1.2-1.7c-0.9-1-2.2-1.5-3.6-1.3c-1.4,0.2-2.7,0.4-4,0.7
			s-2.4,0.4-3.6,0.6c-3.6,0.5-7.2,1.3-10.7,2.3c-0.9,0.3-1.8,0.5-2.8,0.7l-1.3,0.3c-0.7,0.1-1.4-0.3-1.5-1c-0.3-0.7-0.6-1.4-1.1-2
			c-0.8-1.2-1.9-2.1-3.1-2.9c-1.3-0.6-2.7-0.8-4.1-0.4c-2.7,0.4-5.3,1.3-7.6,2.8c-3.1,2.2-6,4.8-8.5,7.6c-0.7,0.7-1.3,1.5-1.9,2.3
			c-1.1,1.6-1.6,3.6-1.4,5.6c0.1,1,0.6,1.9,1.5,2.3c1.2,0.8,2.6,1.2,4,1.2c7.4-0.6,14.3-4.7,19.3-11.5c0.7-0.8,1.7-1.4,2.8-1.4
			c2.8-0.4,5.6-1,8.3-1.8l0,0L276.1,43L276.1,43z M276.1,55.4h-0.5c-0.7,0-1.3-0.2-1.9-0.5c-0.5-0.3-0.8-0.8-1-1.3
			c-0.4-1.3-0.2-2.8,0.6-3.9c0.9-1.2,1.9-2.4,3.1-3.4l0.3-0.3c1.4-1.4,3-2.6,4.7-3.6l0.4-0.2c1-0.6,2.2-1,3.3-1.2
			c0.4-0.1,0.6,0.4,0.9,1c0.3,0.8,0.8,1.5,1.5,1.9c2.7,1,6.8-0.1,7.3-0.2h0.2v0.2c0,0.7-5.1,5.4-6.5,6.3l0,0
			c-2.1,1.4-3.9,2.5-5.7,3.5c-1.4,0.8-3,1.4-4.6,1.6C277.4,55.4,276.7,55.5,276.1,55.4L276.1,55.4z M285.2,41.3L285.2,41.3
			c-1.1,0.2-2.2,0.6-3.2,1.2l-0.4,0.2c-1.7,0.9-3.3,2.1-4.6,3.5l-0.3,0.3c-1.1,1-2.2,2.1-3.1,3.3c-0.8,1-1,2.4-0.6,3.6
			c0.1,0.5,0.4,0.9,0.9,1.2c0.5,0.3,1.2,0.5,1.8,0.5c0.8,0,1.7,0,2.5-0.2c1.6-0.2,3.1-0.8,4.5-1.6c1.7-1,3.5-2.1,5.6-3.5l0,0
			c2.3-1.7,4.4-3.7,6.2-5.8c-1.2,0.3-4.7,1-7.2,0.1c-0.7-0.5-1.3-1.2-1.6-2.1C285.5,41.6,285.3,41.3,285.2,41.3L285.2,41.3z
			 M306.9,54.7c-0.9,0-1.8-0.3-2.6-0.9c-2-1.5-0.3-3.8,0.7-5.1c2.3-3,4.4-4.3,7.6-6.1c3-1.9,6.5-2.9,10.1-3.1h0.4c0.3,0,0.5,0,0.8,0
			h0.3l-0.4,0.4l-0.5,0.6l0,0c-1.1,1.2-2,2.3-3,3.5c-3.4,4-6.3,7.4-11.5,10.2C308.3,54.5,307.6,54.7,306.9,54.7L306.9,54.7z
			 M322.8,39.7c-3.5,0.2-6.9,1.2-9.9,3.1c-3.2,1.8-5.3,3.1-7.5,6.1c-1,1.3-2.6,3.4-0.8,4.7c1.2,1,3,1.1,4.3,0.3
			c5.2-2.8,8.1-6.2,11.4-10.2c1-1.1,1.9-2.3,3-3.5l0,0l0.5-0.5L322.8,39.7L322.8,39.7z M246.4,54.6h-0.6c-0.3,0-0.6,0-0.9-0.1
			c-0.3,0-0.7-0.1-1-0.2c-0.4-0.2-0.7-0.5-0.9-0.9c-0.2-0.9,0-1.8,0.5-2.6c1.4-2.5,3.1-4.7,5.3-6.5l0.5-0.4c1.9-1.9,4.1-3.4,6.5-4.5
			c0.3-0.1,0.6-0.1,0.9,0c0.2,0.1,0.4,0.3,0.5,0.5c0.1,0.2,0.1,0.5,0.1,0.7c0,0.1,0,0.3,0,0.4c0.1,0.5,0.4,1,0.8,1.3
			c0.6,0.6,1.4,1,2.2,1.2l0.4,0.1c0.7,0.1,1.8,0.3,2.2,0.8c0.1,0.2,0.1,0.4,0.1,0.5l0,0c-0.1,0.3-0.3,0.5-0.5,0.6
			c-1.6,1.5-3.4,3-5.1,4.4C254.8,51.9,251,54.6,246.4,54.6z M256.3,39.5c-0.1,0-0.3,0-0.4,0.1c-2.4,1.1-4.5,2.6-6.4,4.5l-0.5,0.4
			c-2.1,1.8-3.9,4-5.2,6.4c-0.4,0.7-0.6,1.5-0.5,2.4c0.1,0.3,0.4,0.6,0.7,0.8c0.3,0.1,0.7,0.2,1,0.2c0.3,0,0.6,0.1,0.9,0.1h0.5
			c4.5,0,8.3-2.6,10.7-4.7c1.7-1.4,3.5-2.9,5.1-4.4c0.2-0.1,0.3-0.3,0.4-0.5l0,0c0-0.1,0-0.2,0-0.3c-0.3-0.4-1.4-0.6-2-0.7l-0.4-0.1
			c-0.9-0.2-1.7-0.7-2.3-1.3c-0.4-0.4-0.8-0.9-0.9-1.5c0-0.1,0-0.3,0-0.4c0-0.2,0-0.4-0.1-0.6c-0.1-0.1-0.2-0.3-0.3-0.3
			C256.5,39.5,256.4,39.5,256.3,39.5z M291.6,42.4c-0.3,0-0.7,0-1-0.1c-0.9,0-1.7-0.4-2.4-0.9c-0.1-0.1-0.1-0.2-0.1-0.4
			c0.1-0.6,1.5-0.8,2.8-0.6l0,0c0.9,0,1.7,0.4,2.4,0.9c0.1,0.1,0.1,0.2,0.1,0.4C293.3,42.2,292.5,42.4,291.6,42.4z M289.8,40.5
			c-1.1,0-1.7,0.2-1.8,0.5c0,0.1,0,0.1,0.1,0.2c0.7,0.6,1.6,0.9,2.5,0.9c1.7,0.2,2.8-0.1,2.8-0.4c0-0.1,0-0.1-0.1-0.2
			c-0.7-0.6-1.6-0.9-2.5-0.9l0,0C290.5,40.6,290.1,40.6,289.8,40.5L289.8,40.5z M263.8,41.8c-0.8,0-1.6-0.2-2.4-0.5
			c-1-0.3-1.9-0.9-2.5-1.8c-0.1-0.1-0.1-0.3,0-0.5c0.3-0.7,2-0.5,3.4,0.1c1,0.3,1.9,0.9,2.5,1.8c0.1,0.1,0.1,0.3,0,0.5
			C264.7,41.7,264.3,41.8,263.8,41.8L263.8,41.8z M259.8,38.8c-0.5,0-0.8,0.1-0.9,0.3c0,0.1,0,0.2,0,0.3c0.6,0.8,1.5,1.4,2.5,1.7
			c1.7,0.7,3.1,0.7,3.3,0.3c0-0.1,0-0.2,0-0.3c-0.6-0.8-1.5-1.4-2.5-1.7C261.5,39.1,260.6,38.9,259.8,38.8L259.8,38.8z M331.2,33.7
			l0.1-0.3c0.3-0.7,0.7-1.4,1.1-2.1c0.2-0.4,0.5-0.8,0.7-1.2l0,0c0.6-1.1,1.2-2.2,1.9-3.3l0.5-0.8c0.5-0.9,1.1-1.7,1.7-2.5
			c0.6-0.7,1.2-1.5,1.9-2.2c2.4-2.8,4.2-4.3,5.1-4.4h0.1V17c0.1,0.6-1.6,3.1-1.9,3.5c-0.9,1.1-1.8,2.3-3.1,3.9l-0.8,0.9
			c-1.2,1.5-2.4,3-3.7,4.3c-0.3,0.3-0.6,0.6-0.9,1c-0.5,0.6-1.1,1.2-1.8,1.7c-0.1,0.1-0.2,0.3-0.3,0.5c-0.2,0.4-0.4,0.7-0.6,0.8
			H331.2z M333.3,30.3c-0.2,0.4-0.4,0.8-0.7,1.2l-0.3,0.5c0.5-0.4,1-0.9,1.5-1.5c0.3-0.3,0.5-0.6,0.9-1c1.3-1.4,2.5-2.9,3.7-4.3
			l0.8-0.9c1.2-1.5,2.2-2.7,3.1-3.9c0.7-1,1.3-2,1.8-3.1c-0.7,0.2-2,1.2-4.8,4.3c-0.7,0.8-1.3,1.5-1.9,2.2c-0.6,0.8-1.1,1.6-1.6,2.4
			l-0.5,0.8C334.5,28.1,333.9,29.1,333.3,30.3L333.3,30.3z"/>
		<path class="st0" d="M250,0.2c-3.2,0.9-6.1,2.7-8.3,5.1c-1.3,1.4-2.4,2.8-3.6,4.3c-2.1,2.8-4.2,5.8-6.3,8.6
			c-2.9,3.8-5.5,7.6-5.9,8.3c-0.5,0.9-1,1.7-1.5,2.6c-0.9,1.4-1.9,2.8-2.8,4.2c-1.2,2-2.8,3.8-4.6,5.4c-2.6,2.2-5.1,4.4-7.6,6.6
			s-4.8,4.3-7.4,6.3c-1.8,1.5-4,2.7-6.3,3.3c-0.5,0.1-1,0.2-1.6,0.1c-0.5,0-1-0.3-1.3-0.7c-0.9-1.4,1.1-4.2,1.7-5.4
			c0.9-2,1.9-3.9,3-5.8s2-4.1,3.2-6s2.8-4,4.2-5.9s3-3.9,4.6-5.8c1-1.2,2-2.4,2.8-3.7c0.8-1.5,1.7-2.9,2.5-4.4
			c0.1-0.3,0.2-0.6,0.3-0.9c0-0.7-0.5-1.2-1.1-1.2c-0.2,0-0.4,0-0.6,0.1c-0.3,0.2-0.6,0.4-0.8,0.6c-0.6,0.6-1.1,1.3-1.6,2
			c-1.3,1.8-2.6,3.5-4,5.3s-6.1,8.6-7.6,10.2s-3.1,3.2-4.7,4.8l-0.2,0.2c-3.4,3.4-6.8,6.7-10.3,10c-1.6,1.5-3.3,2.8-4.9,4.1
			c-0.9,0.8-1.8,1.4-2.8,2c-0.7,0.4-3.5,1.6-3.9,0.3c-0.1-0.5-0.1-1,0-1.5c0.5-1.6,1.2-3.1,2.3-4.5c1.9-2.6,3.2-5.5,4.7-8.3
			c0.5-1,0.9-2.2,1-3.3c0.1-0.8,0-1.7-0.4-2.4c-0.3-0.6-1-1-1.7-0.9c-0.5,0.1-1,0.3-1.5,0.5c-1.5,0.8-3.1,1.7-4.6,2.6l-3.9,2.4
			c-0.5,0.4-1.1,0.7-1.8,1c0.9-1.2,1.7-2.5,2.3-3.9c0.3-0.6,0.4-1.3,0.3-1.9c-0.1-0.8-0.9-1.3-1.6-1.1c-0.1,0-0.3,0.1-0.4,0.1
			c-1.9,1-3.5,2.2-5,3.7c-3.1,3.1-6.5,5.9-10.2,8.4c-3.6,2.6-7.4,4.8-11.4,6.8c-2.2,1-5.3,2.7-7.8,2c-0.6-0.2-1.2-0.7-0.6-1.2
			c0.6-0.5,6-5,8.2-6.9c1.8-1.5,3.5-3,5.1-4.7c1.5-1.5,3.2-4,2.3-6.2c-1.1-2.8-4.6-1.2-6.6-0.3c-4,1.8-6.8,5-9.3,8.3
			c-1.4,1.8-3.2,3.9-3.8,6.2c-0.3,1.7-1.3,3.1-2.8,3.9c-2.9,1.6-6,2.9-9.2,3.8c-1.5,0.5-3.2,0.3-4.6-0.5c-0.6-0.3-1-1-0.8-1.6
			c0.3-0.8,0.7-1.5,1.1-2.2c3.2-4.7,7.3-8.7,12.1-11.8c0.3-0.2,0.5-0.4,0.8-0.6c0.9-0.7,0-2.1-0.9-2.1c-0.5,0-1,0.1-1.5,0.3
			c-2.1,0.8-4.3,1.3-6.6,1.6c-1.3,0.2-5,0.8-3.8-1.5c0.5-0.9,0.9-1.8,1.3-2.7c0.2-0.5,0.2-1,0-1.5c-0.5-1.1-1.8-1.8-3-1.6
			c-1.7,0.4-3.3,1.2-4.5,2.5c-1.7,1.7,0,3.9-0.9,5.8c-0.3,0.6-0.7,1.1-1.3,1.5c-4.4,3.9-9.3,7.3-14.5,10c-0.8,0.4-1.6,0.8-2.4,1.1
			c-1.1,0.5-2.3,0.9-3.5,1.2c-0.9,0.2-2.4,0.8-3.2,0.2c-0.5-0.5-0.6-1.2-0.5-1.8c0.7-5.4,5.9-9.1,9.5-13c0.7-0.7,1.2-1.5,1.4-2.4
			c0.1-0.5,0.1-1.1,0.2-1.6s0.4-1,0.4-1.6c0-0.3-0.1-0.7-0.4-0.9c-1.9-2.1-5.4-0.2-7.5,0.6c-3.1,1.2-6.1,2.6-9,4.3
			c-2.7,1.5-5.2,3.3-7.5,5.2c-1.8,1.6-8.4,7.9-8.9,9.9c-0.4,1.2,0,2.4,0.9,3.2c1.1,0.7,2.5,1,3.8,0.9c3.6-0.3,7.2-1.4,10.2-3.4
			c0.6-0.4,1.2-0.7,1.8-1c0.5-0.2,1,0,1.3,0.5c0.1,0.7,0.2,1.3,0.4,1.9c0.7,1.9,2.6,2.9,4.6,2.6c8.6-1.7,16.1-6.6,22.6-11.8l3.6-2.9
			c1-0.8,2.2-0.6,3.4-0.6h4.3c0.2,0,0.3,0,0.5,0.1c0.2,0.1,0.2,0.3,0.2,0.5c-0.1,0.2-0.1,0.3-0.3,0.5c-1.8,2.4-4.1,4.4-5.9,6.8
			c-0.9,1.2-1.5,2.6-1.8,4.1c-0.1,0.7,0,1.3,0.3,1.9c0.3,0.6,0.7,1.2,1.3,1.5c1,0.7,2.2,1.2,3.4,1.3c2.3,0.2,4.6-0.1,6.8-0.8
			c1.8-0.6,3.6-1.4,5.3-2.2c0.9-0.5,1.9-0.9,2.9-1.3c0.3-0.1,0.7-0.1,1,0.1c0.9,0.6,1.9,1,2.9,1.2c2.6,0.4,5.3,0,7.8-1
			c1.9-0.9,3.8-1.7,5.6-2.6c1.9-1,3.7-2.1,5.4-3.4c2.3-1.5,4.6-3.1,6.8-4.8c1.1-0.8,2.5-2.3,3.8-2.7c-0.3,0.5-0.5,0.9-0.7,1.4
			c-0.4,0.6-0.8,1.2-1.3,1.7c-2.7,3.4-5.6,6.6-8.4,9.9c-0.4,0.5-1.3,1-1.6,1.5s0.3,1.8,1.1,2.1c0.6,0.2,1.2-0.4,1.6-0.7
			c1.4-1.3,2.8-2.6,4.1-3.9c4.6-4.4,9.2-8.7,14.2-12.7c2-1.7,4.1-3.2,6.4-4.4c1.4-0.7,1.2,1.3,0.9,1.9c-1.3,2.5-2.7,4.9-4.1,7.3
			c-1.4,2.2-2.6,4.5-3.5,7c-0.4,1.2-0.5,2.8,0.6,3.7c0.6,0.4,1.3,0.7,2,0.7c2.6,0.2,5.2-0.7,7.3-2.3c3.1-2.2,6-4.6,8.8-7.2
			c0.9-0.9,1.8-1.8,2.7-2.7l1.8-1.5l0.9-0.8c0.2-0.2,0.5-0.4,0.7-0.5c0,1.1-1.1,2.6-1.6,3.6c-1.1,2.3-2.1,4.6-3,7
			c-0.3,0.8-0.1,1.7,0.5,2.3c1,1.2,2.4,1.9,3.9,2.1c1.3,0.1,2.5-0.1,3.8-0.5c2.8-0.8,5.4-2.1,7.7-3.9c1.1-0.9,5.6-4.7,6.9-5.7
			c0,0.4-0.1,0.7-0.3,1c-0.9,1.7-2,3.3-3.2,4.8c-1.2,1.7-1.4,2.1-2.6,3.8c-0.3,0.3-0.5,0.8-0.5,1.2c0.1,0.5,0.6,0.9,1.1,1
			c0.5,0.1,1,0.1,1.4-0.1c0.4-0.2,0.7-0.4,1-0.7c4.2-3.7,7-6.5,10.9-10.5c3.9-3.9,8.2-7.3,13-10.1c0.6-0.4,1.2-0.7,1.9-1.1
			c0.2-0.1,1.7-0.8,3.2-1.3c1.4-0.3,3.7-0.6,2,1.2c-3.8,4.4-7.2,9.1-10,14.2c-0.5,1-1,2-1.4,3.1c-0.3,0.9-0.2,2,0.3,2.8
			c0.4,0.7,1,1.2,1.7,1.4c2.3,0.8,4.8-1.2,3.5-1.5c-0.9-0.1-1.7-0.6-2.3-1.3c-0.6-1,0.4-2.2,0.9-3c0.7-1.2,1.4-2.4,2.2-3.5
			c1.4-2.3,3-4.5,4.8-6.6c1.1-1.3,2.2-2.6,3.2-3.9c0.5-0.8,1-1.7,1.4-2.6c0.1-0.1,0.1-0.3,0.1-0.4c0,0,0-0.1,0-0.1
			c0.1-2.5-1.2-2.6-2.2-3c-1.2-0.5-6,0.8-7.1,1.3c-7.1,3.1-13.5,7.7-18.7,13.5l0,0c0.2-0.3,0.4-0.7,0.6-1.1c1.5-2.8,3.3-5.5,5.3-8
			c0.9-1.1,1.9-2.1,3-3.1c3.1-2.9,6.4-5.5,9.5-8.4c2.9-2.7,5.6-5.7,7.9-8.9c1.6-2.1,3.2-4.3,4.9-6.4c2.3-2.8,4.3-5.4,4.8-9
			C252.3,1.5,251.7-0.3,250,0.2z M75.4,49.4C69.1,54,65,54.8,62.6,54.7c-0.3,0-0.5-0.1-0.8-0.2c-0.3-0.3-0.4-0.8-0.2-1.2
			c0.5-0.8,1.2-1.5,1.9-2.1c0.8-0.8,1.5-1.6,2.3-2.4c1.5-1.6,3.1-3.1,4.8-4.4c3.1-2.4,6.4-4.4,10-5.9c1.1-0.5,2.1-0.9,3.2-1.3
			c0.7-0.4,1.4-0.6,2.1-0.8c1.2,0,0.7,0.8,0.2,1.5C82.7,42.2,79.7,46.2,75.4,49.4z M108.9,37.5c-0.6,0.6-2.1,1.2-2.3,0.7
			s0.4-1.3,0.9-1.7c0.7-0.5,2.4-1.3,2.8-0.9S109.7,36.8,108.9,37.5z M132.5,46.8c2.3-3.2,5-6,8.1-8.5c0.6-0.6,1.4-1,2.3-1.2
			c0.3-0.1,0.7,0,1,0.2c0.2,0.2,0.2,0.6,0,0.8c-0.2,0.3-0.4,0.6-0.6,0.8c-2,1.8-4,4.2-6,6c-1.8,1.7-3.7,3.1-5.7,4.4
			C131.7,48.5,132,47.6,132.5,46.8z M247.5,6c-2.9,4.3-6.1,8.5-9.5,12.5c-2.2,2.5-9.5,10-10.8,11.4c-0.6,0.5-1.2,1.1-1.7,1.8
			l2.7-4.5c0.6-1.1,5.5-7.3,5.6-7.5c2.1-2.8,4.1-5.5,6.2-8.2c1.9-2.5,3.9-5,6.8-6.5c0.3-0.1,0.6,0,0.8,0.3c0,0.1,0.1,0.2,0.1,0.3
			C247.7,5.6,247.6,5.8,247.5,6z"/>
		<path class="st0" d="M113.8,60.1c-0.5,0-1,0-1.6-0.1c-1.3-0.1-2.5-0.6-3.5-1.3c-0.6-0.4-1.1-1-1.3-1.6c-0.3-0.6-0.4-1.3-0.3-2
			c0.3-1.5,1-2.9,1.9-4.1c0.9-1.3,1.9-2.5,3-3.7c0.9-1,1.9-2.1,2.8-3.2c0.1-0.1,0.2-0.3,0.2-0.4c0-0.1,0-0.3-0.1-0.3
			c-0.1-0.1-0.3-0.1-0.4-0.1h-4.3h-0.6c-0.9-0.2-1.9,0-2.7,0.6l-3.6,2.9C95,53.4,87.8,57.2,80.6,58.6c-2,0.4-4-0.8-4.7-2.7
			c-0.1-0.4-0.2-0.8-0.3-1.2c0-0.2-0.1-0.5-0.1-0.7c-0.1-0.2-0.2-0.3-0.4-0.4c-0.2-0.1-0.5-0.1-0.7,0l-0.5,0.3
			c-0.4,0.2-0.9,0.5-1.3,0.8c-3.1,2-6.6,3.1-10.3,3.3c-1.4,0.1-2.7-0.2-3.9-0.9c-0.9-0.8-1.3-2.1-0.9-3.3c0.5-2,7.2-8.4,8.9-9.9
			c2.4-2,4.9-3.7,7.6-5.3c2.9-1.7,5.9-3.1,9-4.3l0.8-0.3c2.2-0.9,5.1-2.1,6.8-0.2c0.3,0.3,0.4,0.6,0.4,1c-0.1,0.3-0.1,0.6-0.2,0.9
			c-0.1,0.2-0.2,0.5-0.2,0.7c0,0.2-0.1,0.5-0.1,0.8c0,0.3,0,0.6-0.1,0.9c-0.3,0.9-0.8,1.8-1.5,2.5c-0.8,0.9-1.7,1.8-2.6,2.6
			c-3.1,3-6.3,6.1-6.8,10.2c-0.2,0.6,0,1.3,0.4,1.7c0.7,0.5,1.8,0.2,2.7-0.1l0.4-0.1c1.2-0.3,2.3-0.7,3.4-1.2
			c0.9-0.4,1.7-0.8,2.4-1.1c5.2-2.7,10.1-6.1,14.5-9.9c0.5-0.4,0.9-0.9,1.2-1.4c0.3-0.8,0.3-1.7,0.2-2.5c-0.3-1.2,0-2.4,0.7-3.3
			c1.3-1.3,2.9-2.1,4.6-2.5c1.3-0.2,2.6,0.4,3.2,1.7c0.2,0.5,0.2,1,0,1.5c-0.3,0.7-0.6,1.5-1,2.2l-0.3,0.6c-0.2,0.5-0.3,0.8-0.1,1.1
			c0.5,0.7,2.4,0.4,3.4,0.3h0.4c2.2-0.3,4.4-0.8,6.6-1.6h0.1c0.5-0.2,1-0.3,1.5-0.3c0.6,0.1,1.2,0.5,1.4,1.1c0.2,0.4,0,1-0.3,1.2
			l-0.3,0.2c-0.2,0.1-0.3,0.3-0.5,0.4c-4.7,3.1-8.8,7.1-12,11.7c-0.3,0.5-0.6,1-0.8,1.6c-0.1,0.2-0.2,0.4-0.3,0.6
			c-0.1,0.6,0.2,1.2,0.7,1.4c1.4,0.7,3,0.9,4.5,0.4c3.2-0.9,6.3-2.1,9.2-3.7c1.5-0.7,2.5-2.1,2.7-3.8c0.5-2.1,2-3.9,3.3-5.6l0.5-0.6
			c2.5-3.2,5.3-6.5,9.4-8.3c1.3-0.6,3.7-1.7,5.4-1c0.6,0.3,1.2,0.8,1.4,1.5c1,2.5-1.3,5.3-2.4,6.3c-1.6,1.6-3.3,3.2-5.1,4.7
			c-2.6,2.1-7.6,6.3-8.2,6.8c-0.1,0.1-0.2,0.3-0.2,0.4c0.1,0.3,0.4,0.5,0.7,0.6c2.2,0.6,4.9-0.7,7-1.7l0.7-0.3
			c4-1.9,7.8-4.2,11.3-6.8c3.6-2.5,7-5.3,10.2-8.4c1.4-1.5,3.1-2.8,4.9-3.8c0.4-0.2,1-0.2,1.4,0c0.4,0.2,0.7,0.6,0.8,1.1
			c0.1,0.7,0,1.4-0.3,2c-0.6,1.2-1.2,2.4-2,3.5c0.3-0.2,0.6-0.4,0.9-0.6L168,39l4-2.3c1.6-1,3.3-1.9,4.6-2.6
			c0.4-0.2,0.7-0.3,1.1-0.4l0.4-0.1c0.8-0.1,1.5,0.3,1.9,1c0.4,0.8,0.5,1.6,0.4,2.5c-0.1,1.2-0.5,2.3-1,3.4
			c-0.4,0.8-0.8,1.6-1.2,2.3c-1,2.1-2.2,4.1-3.5,6c-1,1.3-1.8,2.8-2.2,4.4c-0.1,0.5-0.1,0.9,0,1.4c0,0.2,0.2,0.3,0.4,0.4
			c0.8,0.3,2.7-0.5,3.3-0.8c1-0.6,1.9-1.2,2.8-1.9l0.8-0.7c1.4-1.1,2.8-2.2,4.1-3.4c3.5-3.3,7-6.6,10.3-10l0.2-0.2l1.3-1.2
			c1.2-1.1,2.4-2.3,3.5-3.6c0.9-1,3.1-4.1,4.9-6.6c1.1-1.6,2.1-3,2.6-3.6c0.8-1,1.6-2.1,2.3-3.1l1.6-2.2c0.5-0.7,1.1-1.3,1.6-2
			c0.2-0.2,0.4-0.4,0.6-0.5l0.2-0.1c0.5-0.3,1.2-0.2,1.6,0.2c0.3,0.3,0.4,0.6,0.4,1c0,0.3-0.1,0.7-0.3,1c-0.5,0.9-1,1.8-1.5,2.7
			l-0.9,1.6c-0.6,1-1.3,2-2.1,2.9l-0.7,0.8c-1.3,1.6-2.9,3.7-4.6,5.8c-1.5,1.9-3,3.9-4.2,5.9c-0.6,1-1.2,2.2-1.7,3.2
			c-0.4,0.9-0.9,1.9-1.4,2.8c-1.1,2-2.1,4-3,5.8c-0.1,0.3-0.3,0.6-0.5,1c-0.8,1.4-1.8,3.3-1.2,4.3c0.3,0.4,0.7,0.6,1.2,0.7
			c0.5,0,1,0,1.5-0.1c2.3-0.6,4.4-1.7,6.2-3.2c1.6-1.3,3.3-2.7,4.8-4.1c0.8-0.7,1.7-1.5,2.6-2.2c1.1-0.9,2.2-1.9,3.2-2.8
			c1.4-1.3,2.9-2.6,4.4-3.8c1.8-1.5,3.4-3.3,4.6-5.3c0.5-0.9,1.1-1.7,1.7-2.5c0.4-0.6,0.8-1.1,1.1-1.7c0.5-0.8,1.1-1.7,1.5-2.6
			c0.4-0.7,2.9-4.4,5.9-8.3c1.2-1.5,2.3-3.1,3.4-4.6c0.9-1.3,1.9-2.7,2.9-4c1.3-1.7,2.4-3.1,3.6-4.3c2.3-2.4,5.2-4.2,8.4-5.1l0,0
			c0.5-0.2,1.1-0.1,1.6,0.3c0.6,0.6,0.9,1.4,0.8,2.3c-0.5,3.7-2.7,6.4-4.8,9.1c-1.4,1.8-2.8,3.6-4.1,5.4l-0.8,1.1
			c-2.4,3.2-5,6.2-7.9,8.9c-1.5,1.4-3.1,2.8-4.7,4.1s-3.2,2.8-4.8,4.2c-1.1,0.9-2,2-2.9,3.1c-2,2.5-3.8,5.2-5.3,8v0.1
			c5.1-5.4,11.2-9.7,18-12.7c1-0.5,5.9-1.9,7.2-1.3l0.4,0.2c0.9,0.3,2,0.7,1.9,3c0,0.1,0,0.1,0,0.2c0,0.2-0.1,0.3-0.1,0.4
			c-0.4,0.9-0.9,1.8-1.4,2.6c-0.7,1-1.5,1.9-2.3,2.8l-0.9,1.1c-1.7,2.1-3.3,4.3-4.8,6.6c-0.7,1-1.4,2.2-2.2,3.5l-0.2,0.4
			c-0.5,0.8-1.1,1.7-0.6,2.5c0.6,0.7,1.3,1.1,2.2,1.2c0.3,0.1,0.4,0.2,0.4,0.4s-0.1,0.4-0.3,0.7c-0.9,0.9-2.2,1.2-3.4,0.8
			c-0.9-0.3-1.6-0.8-2.1-1.5c-0.5-0.9-0.6-2-0.3-2.9c0.4-1.1,0.9-2.1,1.4-3.1c2.8-5.1,6.1-9.9,9.9-14.3c0.6-0.7,0.6-1,0.5-1
			s-0.4-0.4-2.4,0c-1.5,0.5-3,1.2-3.2,1.3c-0.6,0.3-1.2,0.7-1.9,1.1c-4.7,2.8-9.1,6.2-12.9,10.1c-4,4.1-6.7,6.9-10.9,10.5
			c-0.3,0.3-0.6,0.5-1,0.7c-0.5,0.2-1,0.2-1.5,0.1c-0.6-0.1-1.1-0.6-1.2-1.2c0-0.5,0.2-1,0.5-1.3c0.6-0.8,0.9-1.3,1.3-1.9
			s0.7-1.1,1.3-1.9l0.8-1c0.9-1.2,1.7-2.4,2.4-3.7c0.1-0.2,0.2-0.4,0.3-0.6c-1.4,1.2-5.6,4.6-6.6,5.5c-2.3,1.8-4.9,3.1-7.7,3.9
			c-1.2,0.4-2.5,0.6-3.8,0.5c-1.6-0.2-3-0.9-4-2.1c-0.6-0.7-0.9-1.6-0.6-2.5c0.9-2.5,1.9-4.8,3-7c0.1-0.3,0.3-0.6,0.6-1
			c0.5-0.7,0.8-1.4,1-2.2l-0.4,0.3l-0.9,0.8l-1.8,1.6c-0.7,0.6-1.3,1.2-1.9,1.8l-0.8,0.8c-2.7,2.7-5.6,5.1-8.8,7.2
			c-2.1,1.6-4.7,2.4-7.3,2.3c-0.8,0-1.5-0.3-2.1-0.7c-1.3-1.1-1-2.9-0.7-3.9c0.8-2.3,1.9-4.5,3.2-6.5l0.3-0.5c1.7-2.9,3-5.1,4.1-7.3
			c0.2-0.4,0.3-1.4,0-1.7c-0.1-0.2-0.4-0.1-0.7,0c-2.3,1.2-4.4,2.7-6.4,4.4c-4.4,3.6-8.9,7.6-14.1,12.7c-1.2,1.2-2.7,2.6-4.1,3.9
			l-0.1,0.1c-0.4,0.4-1,0.9-1.6,0.7c-0.6-0.3-1-0.8-1.2-1.4c-0.1-0.3-0.1-0.7,0.1-0.9c0.3-0.4,0.6-0.7,0.9-0.9
			c0.3-0.2,0.5-0.4,0.7-0.6l1.7-2c2.3-2.6,4.6-5.2,6.7-8c0.5-0.6,0.9-1.2,1.3-1.7c0-0.1,0.1-0.3,0.2-0.5l0.2-0.5
			c-0.9,0.5-1.7,1.1-2.4,1.8c-0.3,0.3-0.7,0.6-1,0.8c-2.2,1.7-4.5,3.3-6.8,4.8l-1,0.6c-1.4,1-2.9,1.9-4.5,2.7c-1,0.5-2,0.9-3,1.4
			s-1.8,0.8-2.7,1.2c-2.5,1-5.2,1.4-7.9,1c-0.7-0.1-1.4-0.3-2.1-0.7c-0.2-0.1-0.5-0.3-0.8-0.4c-0.3-0.2-0.6-0.2-0.9-0.1l-0.8,0.4
			c-0.7,0.3-1.4,0.6-2,0.9c-1.7,0.9-3.5,1.6-5.4,2.2C117.4,59.8,115.6,60.1,113.8,60.1z M108.9,42.9h0.7h0.6h4.3
			c0.2,0,0.4,0,0.5,0.1c0.2,0.2,0.3,0.4,0.2,0.7c-0.1,0.2-0.2,0.4-0.3,0.5c-0.9,1.1-1.8,2.2-2.8,3.2c-1.1,1.1-2.1,2.4-3.1,3.6
			c-0.9,1.2-1.5,2.6-1.8,4c-0.1,0.7,0,1.3,0.3,1.9c0.3,0.6,0.7,1.1,1.2,1.5c1,0.7,2.1,1.1,3.3,1.3c2.3,0.2,4.6,0,6.8-0.8
			c1.8-0.6,3.6-1.4,5.3-2.2c0.7-0.3,1.4-0.6,2-0.9l0.8-0.4c0.4-0.2,0.8-0.1,1.1,0.1c0.3,0.1,0.5,0.3,0.8,0.4c0.6,0.4,1.3,0.7,2,0.8
			c2.6,0.4,5.3,0,7.7-1c0.9-0.4,1.8-0.8,2.7-1.2c0.9-0.4,2-0.9,3-1.4c1.6-0.8,3.1-1.7,4.5-2.7l1-0.6c2.3-1.5,4.6-3.1,6.8-4.8
			c0.3-0.2,0.6-0.5,1-0.8c0.8-0.8,1.8-1.5,2.9-2l0,0v0.1l0.1,0.1c-0.2,0.3-0.3,0.5-0.4,0.8c-0.1,0.2-0.2,0.4-0.3,0.6
			c-0.4,0.5-0.8,1.1-1.3,1.7c-2.1,2.7-4.5,5.4-6.7,8l-1.7,2c-0.2,0.2-0.5,0.5-0.7,0.7c-0.3,0.2-0.6,0.5-0.9,0.8
			c-0.1,0.2-0.1,0.5,0,0.7c0.2,0.5,0.5,1,1,1.2c0.4,0.2,1-0.3,1.3-0.6l0.1-0.1c1.5-1.3,2.9-2.7,4.1-3.9c5.3-5.1,9.8-9.2,14.2-12.8
			c2-1.7,4.2-3.2,6.5-4.4c0.6-0.3,0.9-0.1,1,0c0.3,0.6,0.4,1.4,0.1,2c-1.1,2.2-2.4,4.4-4.1,7.3l-0.3,0.5c-1.3,2-2.4,4.2-3.2,6.5
			c-0.3,0.9-0.6,2.6,0.6,3.6c0.6,0.4,1.2,0.6,1.9,0.7c2.6,0.2,5.1-0.6,7.1-2.2c3.1-2.2,6-4.6,8.7-7.2l0.8-0.8
			c0.6-0.6,1.2-1.3,1.9-1.9l1.8-1.6l0.9-0.8c0,0,0.7-0.6,0.9-0.5h0.1v0.1c-0.1,1-0.5,1.9-1.1,2.7c-0.2,0.3-0.4,0.7-0.5,1
			c-1.1,2.2-2.1,4.5-3,7c-0.3,0.8-0.1,1.6,0.5,2.2c1,1.1,2.3,1.8,3.8,2c1.2,0.1,2.5-0.1,3.7-0.5c2.8-0.7,5.4-2.1,7.6-3.8
			c1.1-0.9,5.7-4.7,6.9-5.7l0.2-0.2v0.2c0,0.4-0.1,0.8-0.4,1.1c-0.7,1.3-1.5,2.6-2.5,3.8l-0.8,1c-0.6,0.8-0.9,1.4-1.3,1.9
			s-0.7,1.1-1.3,1.9c-0.3,0.3-0.5,0.7-0.5,1.1c0.1,0.5,0.5,0.8,1,0.9c0.4,0.1,0.9,0.1,1.3-0.1c0.4-0.2,0.7-0.4,1-0.7
			c4.2-3.6,6.9-6.4,10.9-10.5c3.9-3.9,8.2-7.3,13-10.1c0.6-0.4,1.3-0.8,1.9-1.1c0.2-0.1,1.7-0.8,3.2-1.3c1.6-0.4,2.5-0.3,2.7,0.1
			s0,0.8-0.5,1.4c-3.8,4.4-7.2,9.1-10,14.2c-0.5,1-1,2-1.4,3.1c-0.3,0.9-0.2,1.9,0.2,2.7c0.3,0.6,0.9,1.1,1.6,1.3
			c1.2,0.4,2.5,0.1,3.4-0.6c0.2-0.2,0.2-0.3,0.2-0.4s-0.1-0.1-0.2-0.2c-0.9-0.1-1.8-0.6-2.4-1.3c-0.5-0.9,0.1-2,0.6-2.8l0.2-0.4
			c0.8-1.3,1.5-2.5,2.2-3.5c1.4-2.3,3-4.5,4.8-6.6l0.9-1.1c0.8-0.9,1.6-1.8,2.3-2.8c0.6-0.8,1-1.6,1.4-2.5c0-0.1,0.1-0.2,0.1-0.4
			l0,0v-0.1c0.1-2.1-0.8-2.4-1.7-2.7l-0.4-0.2c-1.1-0.5-5.9,0.8-7,1.3c-7.1,3.1-13.5,7.7-18.7,13.5l-0.8,0.8l0.6-1
			c0.2-0.4,0.4-0.7,0.6-1.1c1.5-2.8,3.3-5.5,5.4-8c0.9-1.1,1.9-2.2,2.9-3.1c1.6-1.5,3.2-2.9,4.8-4.3s3.2-2.7,4.7-4.1
			c2.9-2.7,5.6-5.6,7.9-8.8l0.8-1.1c1.3-1.8,2.7-3.6,4.1-5.4c2.1-2.6,4.3-5.3,4.8-8.9c0.1-0.7-0.1-1.5-0.7-2
			c-0.4-0.3-0.8-0.4-1.3-0.2l0,0c-3.2,0.9-6,2.7-8.3,5.1c-1.1,1.2-2.3,2.6-3.6,4.3c-1,1.3-2,2.7-2.9,4c-1.1,1.5-2.2,3.1-3.4,4.6
			c-3,3.9-5.5,7.6-5.8,8.3c-0.5,0.9-1,1.8-1.6,2.6c-0.4,0.6-0.8,1.1-1.1,1.7c-0.6,0.8-1.1,1.7-1.6,2.5c-1.3,2-2.8,3.9-4.7,5.4
			c-1.5,1.2-3,2.5-4.4,3.8c-1.1,0.9-2.2,1.9-3.2,2.8c-0.9,0.7-1.7,1.5-2.6,2.2c-1.6,1.4-3.2,2.8-4.8,4.1c-1.8,1.5-4,2.7-6.3,3.3
			c-0.5,0.1-1.1,0.2-1.6,0.1c-0.6-0.1-1.1-0.3-1.4-0.8c-0.8-1.2,0.4-3.2,1.2-4.6c0.2-0.4,0.4-0.7,0.5-1c0.8-1.8,1.8-3.9,3-5.8
			c0.5-0.9,1-1.8,1.4-2.8c0.5-1.1,1.1-2.2,1.7-3.2c1.3-2.1,2.8-4,4.2-6c1.6-2.1,3.3-4.2,4.6-5.8l0.7-0.8c0.8-0.9,1.5-1.8,2.1-2.9
			l0.9-1.6c0.5-0.9,1-1.8,1.5-2.7c0.1-0.3,0.2-0.6,0.3-0.9c0.1-0.5-0.3-1.1-0.8-1.2c-0.3,0-0.5,0-0.7,0.2l-0.2,0.1
			c-0.2,0.1-0.4,0.3-0.6,0.4c-0.6,0.6-1.1,1.3-1.6,1.9l-1.7,2.1c-0.8,1-1.6,2.1-2.3,3.1c-0.5,0.6-1.5,2-2.6,3.6
			c-1.9,2.6-4.1,5.6-5,6.7c-1.1,1.2-2.3,2.4-3.5,3.6l-1.3,1.2l-0.2,0.2c-3.4,3.3-6.8,6.7-10.4,10c-1.3,1.2-2.7,2.3-4.1,3.5l-0.8,0.7
			c-0.9,0.8-1.8,1.4-2.8,2c0,0-2.4,1.3-3.6,0.8c-0.3-0.1-0.5-0.3-0.5-0.6c-0.1-0.5-0.1-1,0-1.5c0.5-1.6,1.2-3.2,2.3-4.5
			c1.3-1.9,2.5-3.9,3.5-6c0.4-0.8,0.8-1.6,1.2-2.3c0.5-1,0.9-2.1,1-3.3c0.1-0.8,0-1.6-0.4-2.3c-0.3-0.6-0.9-0.9-1.6-0.8l-0.4,0.1
			c-0.4,0.1-0.7,0.2-1.1,0.4c-1.3,0.7-2.9,1.6-4.5,2.6c-1.3,0.8-2.6,1.6-3.9,2.4l-0.4,0.3c-0.4,0.3-0.9,0.6-1.4,0.8l-0.4,0.1
			l0.2-0.3c0.9-1.2,1.7-2.5,2.3-3.9c0.3-0.6,0.4-1.2,0.2-1.8c-0.1-0.4-0.3-0.7-0.6-0.9c-0.4-0.2-0.8-0.2-1.1,0
			c-1.8,1-3.5,2.3-4.9,3.8c-3.1,3.1-6.6,6-10.2,8.4c-3.6,2.6-7.4,4.9-11.4,6.8l-0.7,0.3c-2.1,1-4.9,2.3-7.2,1.7
			c-0.4-0.1-0.8-0.4-0.9-0.8c-0.1-0.3,0-0.5,0.3-0.7c0.6-0.6,5.9-5,8.2-6.9c1.8-1.5,3.5-3,5.1-4.7c1-1,3.3-3.7,2.3-6
			c-0.2-0.6-0.6-1.1-1.2-1.3c-1.5-0.6-3.9,0.5-5.1,1c-4,1.8-6.8,5.1-9.3,8.2l-0.5,0.6c-1.3,1.6-2.8,3.5-3.2,5.5
			c-0.3,1.7-1.3,3.2-2.9,4c-2.9,1.6-6.1,2.9-9.3,3.8c-1.6,0.5-3.3,0.3-4.7-0.5c-0.7-0.3-1.1-1.1-0.9-1.8l0.3-0.6
			c0.2-0.6,0.5-1.1,0.9-1.7c3.2-4.7,7.3-8.7,12.1-11.8c0.2-0.1,0.3-0.2,0.5-0.4l0.3-0.2c0.3-0.2,0.4-0.6,0.3-0.9
			c-0.2-0.5-0.6-0.9-1.1-0.9c-0.5,0-0.9,0.1-1.4,0.3h-0.1c-2.1,0.8-4.4,1.3-6.6,1.6h-0.4c-1.2,0.2-3.1,0.4-3.7-0.4
			c-0.2-0.4-0.2-1,0.1-1.4l0.3-0.6c0.4-0.7,0.7-1.4,1-2.1c0.1-0.4,0.1-0.9,0-1.3c-0.5-1.1-1.7-1.6-2.9-1.4c-1.7,0.4-3.2,1.2-4.5,2.4
			c-0.9,0.9-0.8,2-0.6,3.1c0.2,0.9,0.1,1.8-0.2,2.7c-0.3,0.6-0.8,1.1-1.3,1.5c-4.4,3.9-9.3,7.3-14.6,10c-0.7,0.4-1.5,0.8-2.4,1.1
			c-1.1,0.5-2.3,0.9-3.5,1.2l-0.4,0.1c-0.9,0.3-2.2,0.6-3,0c-0.5-0.5-0.7-1.3-0.5-2c0.6-4.2,3.8-7.4,6.9-10.4
			c0.9-0.9,1.8-1.8,2.6-2.6c0.7-0.6,1.2-1.5,1.4-2.4c0-0.3,0.1-0.5,0.1-0.8c0-0.3,0-0.5,0.1-0.8c0.1-0.3,0.1-0.5,0.2-0.8
			c0.1-0.3,0.2-0.5,0.2-0.8c0-0.3-0.1-0.6-0.3-0.8c-1.6-1.8-4.4-0.6-6.5,0.3L83,34.5c-3.1,1.2-6.1,2.6-8.9,4.3
			c-2.7,1.5-5.2,3.3-7.5,5.3c-1.7,1.5-8.3,7.9-8.8,9.8c-0.3,1.1,0,2.2,0.8,3c1.1,0.7,2.4,1,3.7,0.9c3.6-0.3,7.1-1.4,10.2-3.4
			c0.4-0.3,0.9-0.5,1.3-0.8l0.5-0.3c0.3-0.2,0.7-0.2,1,0c0.3,0.1,0.4,0.3,0.5,0.6c0,0.2,0.1,0.5,0.1,0.7c0.1,0.4,0.2,0.8,0.3,1.2
			c0.7,1.8,2.5,2.8,4.4,2.5c7.2-1.4,14.3-5.2,22.5-11.8l3.6-2.9C107.3,43,108.1,42.8,108.9,42.9z M63.2,54.8h-0.6
			c-0.3,0-0.6-0.1-0.8-0.2c-0.4-0.4-0.5-0.9-0.2-1.4c0.4-0.6,0.8-1.1,1.3-1.6c0.2-0.2,0.4-0.3,0.5-0.5c0.7-0.7,1.5-1.6,2.3-2.4
			c1.5-1.6,3.1-3.1,4.8-4.5c3.1-2.4,6.4-4.4,10-6c1-0.4,2.1-0.9,3.2-1.4c0.2-0.1,0.4-0.2,0.6-0.3c0.5-0.3,1-0.4,1.6-0.5
			c0.5,0,0.7,0.1,0.8,0.3c0.1,0.2,0,0.7-0.6,1.4l-1,1.2c-3,3.9-5.9,7.5-9.9,10.4l0,0C70.6,53,66.5,54.8,63.2,54.8z M86.1,36.4H86
			c-0.5,0.1-1,0.2-1.5,0.5c-0.2,0.1-0.4,0.2-0.6,0.3c-1.2,0.4-2.3,0.9-3.2,1.3c-3.6,1.5-6.9,3.5-9.9,5.9c-1.7,1.4-3.3,2.9-4.8,4.4
			c-0.8,0.8-1.6,1.6-2.3,2.4c-0.2,0.2-0.4,0.3-0.5,0.5c-0.5,0.4-0.9,0.9-1.3,1.5c-0.2,0.3-0.1,0.7,0.1,1c0.2,0.1,0.4,0.2,0.7,0.2
			c3.3,0.2,7.6-1.5,12.7-5.2l0,0c3.9-2.8,6.8-6.5,9.8-10.3l1-1.2c0.5-0.7,0.6-1,0.5-1.1C86.6,36.5,86.4,36.4,86.1,36.4z M131.4,49.6
			v-0.3c0.2-0.9,0.5-1.8,1-2.6l0,0c2.3-3.2,5.1-6.1,8.1-8.5c0.7-0.6,1.5-1,2.3-1.2c0.4-0.1,0.8,0,1.1,0.2c0.3,0.3,0.3,0.7,0.1,1
			l-0.1,0.2c-0.1,0.2-0.3,0.5-0.5,0.7c-0.9,0.8-1.8,1.8-2.8,2.8c-1.1,1.1-2.2,2.2-3.3,3.2c-1.8,1.7-3.7,3.1-5.7,4.4L131.4,49.6z
			 M132.6,46.9c-0.4,0.7-0.7,1.4-0.9,2.2c1.9-1.3,3.8-2.7,5.4-4.3c1.1-1,2.2-2.1,3.3-3.2c0.9-0.9,1.9-1.9,2.8-2.8
			c0.2-0.2,0.3-0.4,0.5-0.6l0.1-0.2c0.2-0.2,0.2-0.5,0-0.7c-0.2-0.2-0.6-0.2-0.8-0.2c-0.8,0.2-1.6,0.6-2.2,1.2
			C137.7,40.8,134.9,43.7,132.6,46.9L132.6,46.9z M107,38.5h-0.2c-0.1,0-0.3-0.1-0.3-0.2c-0.3-0.7,0.4-1.5,0.9-1.8s2.5-1.5,2.9-0.9
			s-0.3,1.1-1.1,1.8l-0.3,0.3l0,0C108.5,38.1,107.8,38.4,107,38.5z M110.2,35.4c-0.9,0.2-1.8,0.6-2.5,1.2c-0.5,0.4-1.1,1.2-0.9,1.7
			c0,0,0,0.1,0.1,0.1c0.8-0.1,1.5-0.4,2.1-1l0.3-0.3c0.6-0.5,1.3-1.3,1.1-1.5C110.4,35.4,110.3,35.4,110.2,35.4L110.2,35.4z
			 M225.6,31.7l-0.2-0.1l0,0l2.8-4.5c0.4-0.6,2.2-3.1,5.4-7.2l0.3-0.4c2-2.6,4.1-5.4,6.2-8.2s4-5.1,6.8-6.5c0.2-0.1,0.5-0.1,0.7,0
			c0.2,0.1,0.3,0.4,0.3,0.7c0,0.2-0.1,0.4-0.2,0.6l0,0c-3,4.3-6.1,8.5-9.5,12.5c-2.2,2.5-9.5,10-10.8,11.4c-0.2,0.2-0.4,0.4-0.6,0.5
			c-0.4,0.3-0.8,0.7-1.1,1.2L225.6,31.7z M247.1,5c-0.1,0-0.1,0-0.2,0c-2.8,1.4-4.7,3.8-6.7,6.4s-4.3,5.6-6.2,8.2l-0.3,0.4
			c-3.2,4.1-5,6.5-5.3,7.1l-2,3.2l0.1-0.1c0.2-0.2,0.4-0.4,0.6-0.5c1.3-1.4,8.6-8.9,10.8-11.4c3.4-4,6.5-8.1,9.5-12.4l0,0
			c0.1-0.1,0.2-0.3,0.2-0.5c0-0.2-0.1-0.3-0.2-0.4C247.3,5,247.2,5,247.1,5z"/>
		<path class="st0" d="M100.2,8.7C98.5,6,95.8,4,92.7,3.3C89.8,2.6,86.9,2,84,1.7c-3.6-0.5-7.2-0.6-10.8-0.3
			C68,1.7,62.8,2.8,57.8,4.4c-0.8,0.2-1.5,0.5-2.3,0.8C53.8,6,52,6.9,50.3,7.8C49.1,8.4,48,9,47,9.7c-0.8,0.5-1.5,1.2-0.6,2
			c0.7,0.7,1.9,0.8,2.6,0.1c1-0.9,2.2-1.7,3.4-2.3c2.5-1.1,5-2.1,7.6-2.8c1.2-0.4,2.5-0.8,3.8-1.1c0.5-0.1,1-0.2,1.5-0.2
			c0.3,0,0.6,0.1,0.8,0.4c0.1,0.1,0.1,0.3,0,0.4c-2.8,3.4-5.9,6.8-8.7,10.2c-2.4,2.9-4.8,5.9-7,8.9l0.1-0.2l-4.6,6.1
			c0.1-0.1,0.2-0.1,0.2-0.2c0.2-0.2,0.3-0.3,0.5-0.5c-0.4,0.6-0.9,1.1-1.4,1.6l0.7-0.9c-0.5,0.3-1,0.5-1.6,0.6
			c-3.4,0.5-3.1,1-2.2,4.2l0.5-0.6c-1,1.5-2.3,2.9-3.5,4.3c-1.6,1.9-3.2,3.7-4.8,5.6c-3,3.5-6,7-8.8,10.6c-0.1,0.1-0.1,0.3-0.2,0.4
			c-0.1,0.3-0.1,0.6,0.1,0.9c0.5,0.7,3,1.2,3.6,0.7c0.4-0.3,0.7-0.6,1-1c5.5-6.4,10-12.8,15.5-19.2c1.5-1.9,3.7-3.2,6.1-3.5l0.7-0.1
			c5.5-1.1,11.2-1.8,16.8-2.7c6.4-1,12.6-2.9,18.4-5.6c3-1.2,5.7-2.9,8.2-5c2.1-2,3.9-4.5,5.1-7.1C101.3,11.8,101.1,10,100.2,8.7z
			 M92.7,18.3c-2,2.1-8.6,5.3-9.5,5.7c-5,1.9-10.2,3.2-15.5,4.1c-5.6,1-11.2,2.1-16.9,2.8c-0.2,0-0.3,0-0.4-0.2
			c-0.2-0.3-0.1-0.6,0.1-0.8c1.3-1.8,2.3-3.2,3.4-4.8c2.5-3.6,5.1-6.8,7.8-9.9c2.1-2.4,4.2-4.9,6.2-7.4c0.9-1.1,1.7-2.2,2.5-3.2
			c0.2-0.3,0.5-0.4,0.8-0.5c2.8-0.5,5.6-0.6,8.4-0.3c3.5,0.3,6.9,0.9,10.3,1.8c2.4,0.7,4.8,1.4,6.3,3.4C96.7,9.6,97,10.3,97,11
			C96.9,13.6,94.5,16.5,92.7,18.3z"/>
		<path class="st0" d="M28,58h-0.4c-0.9,0-1.7-0.4-2.4-1c-0.2-0.3-0.3-0.7-0.1-1h0c0-0.1,0.1-0.3,0.2-0.4c2.5-3.2,5.3-6.6,8.8-10.6
			l0.9-1c1.3-1.5,2.7-3,4-4.6l1.1-1.2c0.6-0.7,1.3-1.5,1.9-2.3c0,0,0-0.1,0-0.2l-0.1-0.2c-0.5-1.6-0.8-2.5-0.4-3.1
			c0.4-0.6,1.2-0.8,2.7-1c0.5-0.1,1-0.2,1.5-0.5l4.6-6l0,0c2.1-2.7,4.4-5.7,6.9-8.7c1.3-1.6,2.7-3.3,4.1-4.9
			c1.5-1.8,3.1-3.7,4.5-5.4c0-0.1,0-0.2,0-0.3c-0.1-0.2-0.4-0.3-0.6-0.3c-0.5,0-1,0.1-1.4,0.2C62.4,6,61.2,6.3,60,6.7
			c-2.6,0.7-5.1,1.7-7.6,2.8c-1.2,0.6-2.3,1.4-3.3,2.3c-0.8,0.8-2.1,0.8-2.8,0c0,0,0,0,0,0c-0.3-0.2-0.4-0.5-0.4-0.9
			c0-0.5,0.6-1,1.1-1.3c1.1-0.7,2.2-1.3,3.4-1.9c1.7-1,3.5-1.8,5.3-2.6c0.7-0.3,1.5-0.6,2.3-0.8c5-1.7,10.1-2.7,15.4-3.1
			C76.8,0.9,80.4,1,84,1.5c2.9,0.4,5.8,0.9,8.7,1.7c3.2,0.7,5.9,2.7,7.6,5.4c1,1.4,1.1,3.2,0.4,4.8c-1.2,2.7-3,5.1-5.1,7.2
			c-2.4,2.1-5.2,3.8-8.2,5c-5.9,2.7-12.1,4.6-18.5,5.6l-4.4,0.7c-4.1,0.6-8.3,1.2-12.3,2L51.5,34c-2.4,0.3-4.5,1.6-6,3.5
			c-2.7,3.2-5.2,6.4-7.7,9.6c-2.4,3.1-5,6.5-7.8,9.7c-0.2,0.2-0.5,0.5-0.7,0.7L29,57.7C28.7,57.9,28.4,58,28,58z M42.5,35.2l0.2,0.2
			c-0.8,1.1-1.6,2.1-2.5,3.1c-0.4,0.4-0.7,0.8-1.1,1.2c-1.3,1.5-2.7,3.1-4,4.6l-0.9,1c-3.5,4-6.3,7.3-8.8,10.5
			c-0.1,0.1-0.1,0.2-0.1,0.3v0.1c-0.1,0.2-0.1,0.5,0.1,0.7c0.6,0.5,1.3,0.8,2.1,0.8c0.4,0.1,0.9,0,1.2-0.2l0.3-0.3
			c0.2-0.2,0.5-0.4,0.7-0.7c2.7-3.2,5.3-6.5,7.8-9.7s5-6.4,7.7-9.6c1.5-2,3.7-3.3,6.2-3.6l0.7-0.1c4.1-0.8,8.3-1.4,12.3-2l4.4-0.7
			c6.4-1,12.6-2.9,18.4-5.5c3-1.2,5.7-2.9,8.1-5c2.1-2,3.8-4.4,5.1-7.1c0.7-1.5,0.5-3.2-0.5-4.6l0,0c-1.7-2.7-4.3-4.6-7.4-5.3
			c-2.8-0.7-5.7-1.3-8.6-1.7c-3.6-0.5-7.2-0.6-10.8-0.3C68,1.9,62.9,2.9,57.9,4.5c-0.8,0.3-1.6,0.5-2.3,0.8
			c-1.8,0.8-3.5,1.6-5.2,2.6c-1.2,0.5-2.3,1.2-3.4,1.9c-0.4,0.3-0.9,0.7-1,1.1c0,0.3,0.1,0.5,0.4,0.6c0.7,0.7,1.7,0.7,2.4,0.1
			c1-0.9,2.2-1.7,3.4-2.4c2.5-1.1,5-2.1,7.7-2.9c1.2-0.4,2.4-0.8,3.8-1.1c0.5-0.1,1-0.2,1.5-0.2c0.4-0.1,0.7,0.1,0.9,0.4
			c0.1,0.2,0.1,0.4,0,0.6c-1.5,1.8-3,3.6-4.5,5.4c-1.4,1.6-2.8,3.2-4.1,4.9c-2.6,3.1-4.9,6.1-7,8.9l0,0l-3.9,5.1l0.1,0.1
			c-0.4,0.6-0.9,1.1-1.4,1.6L45,31.9l0.1-0.2l0,0l0.2-0.2c-0.3,0.1-0.7,0.2-1,0.3c-1.6,0.3-2.2,0.5-2.5,0.9
			c-0.3,0.4-0.1,1.3,0.4,2.9l0,0L42.5,35.2z M50.8,31.1c-0.2,0-0.4-0.1-0.5-0.2c-0.2-0.3-0.2-0.7,0.1-1c0.8-1,1.4-1.9,2-2.8l1.4-2
			c2.4-3.4,5-6.7,7.8-10c2-2.3,4-4.6,6.2-7.4C68.5,7,69,6.2,69.6,5.5l0.7-1C70.6,4.2,70.9,4,71.3,4c2.8-0.5,5.6-0.6,8.4-0.3
			c3.5,0.3,6.9,1,10.3,1.9c2.4,0.7,4.8,1.4,6.4,3.5c0.5,0.6,0.7,1.3,0.8,2c-0.1,2.5-2.4,5.4-4.3,7.4l-0.1-0.1l0.1,0.1
			c-2,2.1-8.5,5.3-9.6,5.8c-5,1.9-10.3,3.2-15.6,4.1C62.6,29.2,56.7,30.2,50.8,31.1L50.8,31.1z M76.8,3.8c-1.8,0-3.6,0.2-5.4,0.5
			c-0.3,0-0.5,0.2-0.7,0.4l-0.7,0.9c-0.6,0.8-1.2,1.6-1.8,2.3c-2.3,2.8-4.2,5.1-6.2,7.4c-2.8,3.3-5.4,6.5-7.8,9.9l-1.4,2
			c-0.6,0.9-1.2,1.8-2,2.8c-0.2,0.3-0.2,0.5-0.1,0.6c0.1,0.1,0.2,0.1,0.3,0.1c5.9-0.8,11.8-1.9,16.9-2.8c5.3-0.9,10.5-2.2,15.5-4.1
			c1.1-0.4,7.5-3.6,9.4-5.7l0,0c1.9-2,3.9-4.8,4-7.2c0-0.7-0.3-1.3-0.7-1.9c-1.5-2-3.9-2.7-6.2-3.4C86.4,4.9,83,4.3,79.6,4
			C78.7,3.9,77.7,3.8,76.8,3.8L76.8,3.8z"/>
	</g>
</g>
<path id="Shape" class="st0" d="M7.6,44.7c-2.7,0-4.9-2.2-4.9-4.9s2.2-4.9,4.9-4.9s4.9,2.2,4.9,4.9C12.5,42.5,10.3,44.7,7.6,44.7
	L7.6,44.7z M7.6,24.2c-2,0-3.8-1.2-4.5-3s-0.3-4,1.1-5.3c1.4-1.4,3.5-1.8,5.4-1c1.8,0.8,3,2.6,3,4.6C12.4,22,10.3,24.1,7.6,24.2
	L7.6,24.2z"/>
</svg>
